<svg width="48" height="48" viewBox="0 0 48 48" fill="none" xmlns="http://www.w3.org/2000/svg">
<circle cx="24" cy="24" r="23.5" fill="white" stroke="#704FE6"/>
<path d="M25.0286 13.9993C25.7583 13.9965 26.488 14.0038 27.2176 14.0213L27.4116 14.0283C27.6356 14.0363 27.8566 14.0463 28.1236 14.0583C29.1876 14.1083 29.9136 14.2763 30.5506 14.5233C31.2106 14.7773 31.7666 15.1213 32.3226 15.6773C32.831 16.1769 33.2244 16.7812 33.4756 17.4483C33.7226 18.0853 33.8906 18.8123 33.9406 19.8763C33.9526 20.1423 33.9626 20.3643 33.9706 20.5883L33.9766 20.7823C33.9943 21.5115 34.002 22.2409 33.9996 22.9703L34.0006 23.7163V25.0263C34.003 25.756 33.9954 26.4858 33.9776 27.2153L33.9716 27.4093C33.9636 27.6333 33.9536 27.8543 33.9416 28.1213C33.8916 29.1853 33.7216 29.9113 33.4756 30.5483C33.2252 31.216 32.8317 31.8209 32.3226 32.3203C31.8225 32.8286 31.2179 33.222 30.5506 33.4733C29.9136 33.7203 29.1876 33.8883 28.1236 33.9383C27.8566 33.9503 27.6356 33.9603 27.4116 33.9683L27.2176 33.9743C26.4881 33.9921 25.7583 33.9997 25.0286 33.9973L24.2826 33.9983H22.9736C22.2438 34.0007 21.5141 33.9931 20.7846 33.9753L20.5906 33.9693C20.3532 33.9607 20.1158 33.9507 19.8786 33.9393C18.8146 33.8893 18.0886 33.7193 17.4506 33.4733C16.7833 33.2226 16.1788 32.8291 15.6796 32.3203C15.1706 31.8206 14.7768 31.2158 14.5256 30.5483C14.2786 29.9113 14.1106 29.1853 14.0606 28.1213C14.0494 27.884 14.0394 27.6467 14.0306 27.4093L14.0256 27.2153C14.0071 26.4858 13.9988 25.756 14.0006 25.0263V22.9703C13.9978 22.2409 14.0051 21.5115 14.0226 20.7823L14.0296 20.5883C14.0376 20.3643 14.0476 20.1423 14.0596 19.8763C14.1096 18.8113 14.2776 18.0863 14.5246 17.4483C14.7759 16.7809 15.1705 16.1767 15.6806 15.6783C16.1795 15.169 16.7835 14.7748 17.4506 14.5233C18.0886 14.2763 18.8136 14.1083 19.8786 14.0583L20.5906 14.0283L20.7846 14.0233C21.5138 14.0049 22.2432 13.9965 22.9726 13.9983L25.0286 13.9993ZM24.0006 18.9993C23.3381 18.9899 22.6803 19.1123 22.0656 19.3593C21.4508 19.6064 20.8912 19.9732 20.4194 20.4383C19.9476 20.9035 19.573 21.4578 19.3173 22.069C19.0616 22.6803 18.9299 23.3362 18.9299 23.9988C18.9299 24.6613 19.0616 25.3173 19.3173 25.9285C19.573 26.5397 19.9476 27.094 20.4194 27.5592C20.8912 28.0244 21.4508 28.3912 22.0656 28.6382C22.6803 28.8853 23.3381 29.0076 24.0006 28.9983C25.3267 28.9983 26.5984 28.4715 27.5361 27.5338C28.4738 26.5961 29.0006 25.3244 29.0006 23.9983C29.0006 22.6722 28.4738 21.4004 27.5361 20.4627C26.5984 19.5251 25.3267 18.9993 24.0006 18.9993ZM24.0006 20.9993C24.3991 20.9919 24.7951 21.0641 25.1654 21.2115C25.5357 21.3589 25.8729 21.5786 26.1574 21.8578C26.4418 22.137 26.6678 22.4701 26.822 22.8376C26.9763 23.2051 27.0558 23.5997 27.0558 23.9983C27.0559 24.3968 26.9766 24.7914 26.8224 25.159C26.6683 25.5266 26.4424 25.8597 26.1581 26.139C25.8737 26.4183 25.5366 26.6381 25.1663 26.7857C24.796 26.9332 24.4001 27.0055 24.0016 26.9983C23.2059 26.9983 22.4429 26.6822 21.8803 26.1196C21.3176 25.557 21.0016 24.7939 21.0016 23.9983C21.0016 23.2026 21.3176 22.4396 21.8803 21.877C22.4429 21.3143 23.2059 20.9983 24.0016 20.9983L24.0006 20.9993ZM29.2506 17.4993C28.928 17.5122 28.6229 17.6494 28.3992 17.8822C28.1755 18.1151 28.0506 18.4254 28.0506 18.7483C28.0506 19.0711 28.1755 19.3815 28.3992 19.6143C28.6229 19.8471 28.928 19.9844 29.2506 19.9973C29.5821 19.9973 29.9 19.8656 30.1345 19.6312C30.3689 19.3967 30.5006 19.0788 30.5006 18.7473C30.5006 18.4158 30.3689 18.0978 30.1345 17.8634C29.9 17.629 29.5821 17.4973 29.2506 17.4973V17.4993Z" fill="#704FE6"/>
</svg>
