<svg width="48" height="48" viewBox="0 0 48 48" fill="none" xmlns="http://www.w3.org/2000/svg">
<circle cx="24" cy="24" r="23.5" fill="white" stroke="#704FE6"/>
<path d="M34.2121 17.6569C33.449 17.9945 32.6397 18.2163 31.8111 18.3149C32.6842 17.792 33.3374 16.9696 33.6491 16.0009C32.8291 16.4889 31.9301 16.8309 30.9941 17.0159C30.3647 16.3425 29.5305 15.8959 28.6211 15.7455C27.7117 15.5951 26.7781 15.7494 25.9654 16.1844C25.1527 16.6193 24.5065 17.3106 24.1272 18.1507C23.748 18.9908 23.6569 19.9327 23.8681 20.8299C22.2051 20.7467 20.5781 20.3146 19.0929 19.5618C17.6076 18.8089 16.2974 17.7521 15.2471 16.4599C14.8754 17.0984 14.6801 17.8241 14.6811 18.5629C14.6811 20.0129 15.4201 21.2939 16.5411 22.0439C15.8771 22.023 15.2278 21.8436 14.6471 21.5209V21.5719C14.6471 22.5378 14.9812 23.4739 15.5927 24.2216C16.2042 24.9692 17.0554 25.4823 18.0021 25.6739C17.3858 25.8411 16.7394 25.8657 16.1121 25.7459C16.379 26.5773 16.8993 27.3044 17.6001 27.8253C18.3009 28.3462 19.1471 28.6349 20.0201 28.6509C19.1525 29.3324 18.159 29.8361 17.0965 30.1333C16.0341 30.4305 14.9234 30.5153 13.8281 30.3829C15.7398 31.6123 17.9652 32.265 20.2381 32.2629C27.9321 32.2629 32.1381 25.8899 32.1381 20.3629C32.1381 20.1829 32.1341 20.0009 32.1261 19.8219C32.9445 19.2303 33.6509 18.4965 34.2121 17.6569Z" fill="#704FE6"/>
</svg>
