<svg width="42" height="43" viewBox="0 0 42 43" fill="none" xmlns="http://www.w3.org/2000/svg">
<path d="M20.999 27.0833C18.1082 27.0833 15.7578 24.7328 15.7578 21.842C15.7578 18.9512 18.1082 16.6008 20.999 16.6008C23.8898 16.6008 26.2402 18.9512 26.2402 21.842C26.2359 24.7328 23.8854 27.0833 20.999 27.0833ZM20.999 18.8019C19.3208 18.8019 17.9545 20.1682 17.9545 21.8464C17.9545 23.5247 19.3208 24.891 20.999 24.891C22.6773 24.891 24.0436 23.5247 24.0436 21.8464C24.0436 20.1682 22.6773 18.8019 20.999 18.8019Z" fill="#704FE6"/>
<path d="M21.0094 31.0771C20.3768 31.0771 19.7442 31.0112 19.1203 30.8838C16.7084 30.383 14.6348 28.9683 13.2816 26.9079C11.9285 24.8474 11.4628 22.3828 11.9636 19.9664C12.3986 17.8752 13.554 15.9905 15.2103 14.6549C16.849 13.337 18.9007 12.6121 20.9919 12.6121C21.6245 12.6121 22.2571 12.678 22.881 12.8054C25.2929 13.3062 27.3666 14.7208 28.7197 16.7813C30.0728 18.8418 30.5385 21.3064 30.0377 23.7227C29.6027 25.814 28.4473 27.6987 26.791 29.0342C25.1479 30.3522 23.0963 31.0771 21.0094 31.0771ZM20.9919 14.8087C17.6837 14.8087 14.7885 17.1635 14.112 20.4102C13.3212 24.206 15.7682 27.9403 19.564 28.7311C20.0385 28.8322 20.5262 28.8805 21.005 28.8805C24.3132 28.8805 27.2084 26.5257 27.885 23.279C28.2672 21.4382 27.9113 19.5623 26.8833 17.9895C25.8552 16.4167 24.2737 15.3403 22.4329 14.9581C21.9584 14.8614 21.4707 14.8087 20.9919 14.8087Z" fill="#704FE6"/>
<path d="M21.0124 34.939C20.6082 34.939 20.1996 34.9214 19.7911 34.8819C16.3072 34.5612 13.1616 32.9005 10.9254 30.2118C8.68919 27.5231 7.63919 24.1227 7.9599 20.6432C8.26304 17.3745 9.76555 14.3563 12.1994 12.1553C14.6158 9.96303 17.735 8.75928 20.9817 8.75928C21.3858 8.75928 21.7944 8.77684 22.203 8.81638C25.6869 9.13709 28.8325 10.7978 31.0687 13.4865C33.3049 16.1752 34.3549 19.5756 34.0342 23.0595C33.731 26.3281 32.2285 29.3463 29.7946 31.5473C27.3783 33.7308 24.2591 34.939 21.0124 34.939ZM20.9817 10.9515C15.3275 10.9515 10.6706 15.2043 10.1478 20.8453C9.5942 26.8289 14.0095 32.1448 19.9932 32.6984C20.3314 32.7291 20.6741 32.7467 21.0124 32.7467C26.6666 32.7467 31.3235 28.494 31.8463 22.853C32.3998 16.8693 27.9846 11.5534 22.0009 10.9999C21.6626 10.9647 21.3199 10.9515 20.9817 10.9515Z" fill="#704FE6"/>
<path d="M21.0082 38.8753C20.8105 38.8753 20.6084 38.8709 20.4063 38.8665C18.1086 38.7874 15.8944 38.2602 13.8251 37.2981C11.8262 36.3711 10.0513 35.0794 8.53996 33.4627C7.02866 31.846 5.86883 29.9832 5.08243 27.9271C4.26528 25.7964 3.89623 23.5514 3.97531 21.2537C4.12908 16.8121 5.97427 12.6692 9.17699 9.58509C12.3665 6.50977 16.5621 4.81396 20.9862 4.81396C21.1839 4.81396 21.386 4.81836 21.5881 4.82275C23.8858 4.90183 26.1 5.42902 28.1693 6.39116C30.1682 7.31814 31.9431 8.60978 33.4544 10.2265C34.9657 11.8433 36.1255 13.706 36.9119 15.7621C37.7291 17.8928 38.0981 20.1378 38.019 22.4355C37.8653 26.8771 36.0201 31.02 32.8174 34.1041C29.6278 37.1838 25.4322 38.8753 21.0082 38.8753ZM20.9862 7.01062C12.9552 7.01062 6.44874 13.3018 6.17196 21.3328C5.8864 29.5087 12.3094 36.3886 20.481 36.6742C20.6567 36.6786 20.8324 36.683 21.0038 36.683C29.0347 36.683 35.5412 30.3918 35.818 22.3608C36.1036 14.1849 29.6805 7.30497 21.509 7.0194C21.3377 7.01501 21.1619 7.01062 20.9862 7.01062Z" fill="#704FE6"/>
<path d="M21 42.8469C18.1663 42.8469 15.4161 42.2934 12.8241 41.195C10.3243 40.1362 8.07929 38.625 6.15063 36.6963C4.22197 34.7676 2.70628 32.5227 1.65189 30.0229C0.557954 27.4308 0 24.6806 0 21.8469C0 19.0132 0.553561 16.263 1.65189 13.671C2.71067 11.1712 4.22197 8.92621 6.15063 6.99755C8.07929 5.06889 10.3243 3.5532 12.8241 2.49881C15.4161 1.40488 18.1663 0.846924 21 0.846924C23.8337 0.846924 26.5839 1.40048 29.1759 2.49881C31.6757 3.5576 33.9207 5.06889 35.8494 6.99755C37.778 8.92621 39.2937 11.1712 40.3481 13.671C41.442 16.263 42 19.0132 42 21.8469C42 24.6806 41.4464 27.4308 40.3481 30.0229C39.2893 32.5227 37.778 34.7676 35.8494 36.6963C33.9207 38.625 31.6757 40.1406 29.1759 41.195C26.5839 42.2934 23.8337 42.8469 21 42.8469ZM21 3.03918C10.6318 3.03918 2.19665 11.4743 2.19665 21.8425C2.19665 32.2107 10.6318 40.6459 21 40.6459C31.3682 40.6459 39.8033 32.2107 39.8033 21.8425C39.8033 11.4787 31.3682 3.03918 21 3.03918Z" fill="#704FE6"/>
</svg>
