<svg width="32" height="32" viewBox="0 0 32 32" fill="none" xmlns="http://www.w3.org/2000/svg">
<path d="M16.0005 8.65285C16.0005 12.7104 12.7112 15.9998 8.65358 15.9998H1.30664V8.65285C1.30664 4.59524 4.59597 1.30591 8.65358 1.30591C12.7112 1.30591 16.0005 4.59524 16.0005 8.65285Z" fill="#704FE6"/>
<path d="M16 23.3469C16 19.2893 19.2893 16 23.3469 16H30.6939V23.3469C30.6939 27.4045 27.4045 30.6939 23.3469 30.6939C19.2893 30.6939 16 27.4045 16 23.3469Z" fill="#704FE6"/>
<path d="M1.30664 23.3469C1.30664 27.4045 4.59597 30.6939 8.65358 30.6939H16.0005V23.3469C16.0005 19.2893 12.7112 16 8.65358 16C4.59597 16 1.30664 19.2893 1.30664 23.3469Z" fill="#704FE6"/>
<path d="M30.6939 8.65285C30.6939 4.59524 27.4045 1.30591 23.3469 1.30591H16V8.65285C16 12.7104 19.2893 15.9998 23.3469 15.9998C27.4045 15.9998 30.6939 12.7104 30.6939 8.65285Z" fill="#FFBE17"/>
</svg>
