<svg width="90" height="90" viewBox="0 0 90 90" fill="none" xmlns="http://www.w3.org/2000/svg">
<path d="M44.9997 56.2219C38.8051 56.2219 33.7686 51.1852 33.7686 44.9907C33.7686 38.7961 38.8051 33.7595 44.9997 33.7595C51.1943 33.7595 56.2309 38.7961 56.2309 44.9907C56.2215 51.1852 51.1849 56.2219 44.9997 56.2219ZM44.9997 38.476C41.4035 38.476 38.4757 41.4039 38.4757 45.0001C38.4757 48.5963 41.4035 51.5241 44.9997 51.5241C48.5959 51.5241 51.5238 48.5963 51.5238 45.0001C51.5238 41.4039 48.5959 38.476 44.9997 38.476Z" fill="#DEC8FE"/>
<path d="M45.0188 64.7794C43.6632 64.7794 42.3075 64.6382 40.9707 64.3652C35.8023 63.292 31.3588 60.2606 28.4592 55.8453C25.5596 51.4301 24.5617 46.1487 25.6349 40.9708C26.5669 36.4897 29.0429 32.451 32.5921 29.589C36.1036 26.7648 40.5 25.2114 44.9812 25.2114C46.3368 25.2114 47.6925 25.3526 49.0293 25.6256C54.1977 26.6989 58.6412 29.7302 61.5408 34.1455C64.4404 38.5608 65.4383 43.8422 64.3651 49.02C63.4331 53.5012 60.9571 57.5399 57.408 60.4018C53.887 63.2261 49.4906 64.7794 45.0188 64.7794ZM44.9812 29.9185C37.8923 29.9185 31.6883 34.9645 30.2385 41.9217C28.5439 50.0555 33.7877 58.0577 41.9216 59.7522C42.9383 59.9688 43.9833 60.0723 45.0094 60.0723C52.0983 60.0723 58.3023 55.0263 59.7521 48.0692C60.5711 44.1246 59.8086 40.1047 57.6056 36.7344C55.4027 33.3641 52.0136 31.0577 48.069 30.2386C47.0523 30.0315 46.0073 29.9185 44.9812 29.9185Z" fill="#DEC8FE"/>
<path d="M45.0284 73.0544C44.1623 73.0544 43.2868 73.0168 42.4112 72.9321C34.9457 72.2448 28.2052 68.6862 23.4133 62.9247C18.6215 57.1632 16.3715 49.8766 17.0587 42.4206C17.7083 35.4164 20.928 28.9488 26.1435 24.2323C31.3213 19.5346 38.0054 16.9551 44.9625 16.9551C45.8286 16.9551 46.7041 16.9927 47.5796 17.0774C55.0451 17.7647 61.7857 21.3233 66.5776 27.0848C71.3694 32.8463 73.6194 40.1329 72.9322 47.5984C72.2826 54.6026 69.0629 61.0701 63.8474 65.7866C58.6696 70.4655 51.9855 73.0544 45.0284 73.0544ZM44.9625 21.6528C32.8464 21.6528 22.8673 30.7658 21.747 42.8536C20.5608 55.6758 30.0221 67.067 42.8443 68.2532C43.5692 68.3191 44.3035 68.3568 45.0284 68.3568C57.1445 68.3568 67.1236 59.2438 68.2439 47.1559C69.43 34.3337 59.9688 22.9425 47.1466 21.7563C46.4217 21.681 45.6874 21.6528 44.9625 21.6528Z" fill="#DEC8FE"/>
<path d="M45.0185 81.4895C44.5948 81.4895 44.1618 81.48 43.7287 81.4706C38.8051 81.3012 34.0603 80.1715 29.6262 78.1098C25.3427 76.1234 21.5394 73.3556 18.3009 69.8911C15.0624 66.4267 12.577 62.4351 10.8919 58.0292C9.14086 53.4633 8.35004 48.6526 8.5195 43.729C8.849 34.2112 12.803 25.3336 19.666 18.7248C26.5007 12.1349 35.4913 8.50098 44.9714 8.50098C45.395 8.50098 45.8281 8.51039 46.2611 8.5198C51.1848 8.68926 55.9296 9.81896 60.3637 11.8807C64.6471 13.8671 68.4505 16.6349 71.689 20.0993C74.9275 23.5637 77.4128 27.5554 79.098 31.9612C80.849 36.5271 81.6398 41.3378 81.4703 46.2614C81.1408 55.7792 77.1869 64.6568 70.3239 71.2656C63.4892 77.865 54.4986 81.4895 45.0185 81.4895ZM44.9714 13.2081C27.7622 13.2081 13.8197 26.6892 13.2266 43.8984C12.6147 61.4183 26.3783 76.161 43.8888 76.7729C44.2653 76.7823 44.6419 76.7918 45.009 76.7918C62.2183 76.7918 76.1607 63.3106 76.7538 46.1014C77.3658 28.5815 63.6021 13.8388 46.0917 13.2269C45.7245 13.2175 45.348 13.2081 44.9714 13.2081Z" fill="#DEC8FE"/>
<path d="M45 90C38.9278 90 33.0345 88.8138 27.4801 86.4602C22.1234 84.1914 17.3128 80.9529 13.1799 76.8201C9.04707 72.6872 5.79917 67.8766 3.53976 62.5199C1.19562 56.9655 0 51.0722 0 45C0 38.9278 1.1862 33.0345 3.53976 27.4801C5.80859 22.1234 9.04707 17.3128 13.1799 13.1799C17.3128 9.04707 22.1234 5.79917 27.4801 3.53976C33.0345 1.19562 38.9278 0 45 0C51.0722 0 56.9655 1.1862 62.5199 3.53976C67.8766 5.80859 72.6872 9.04707 76.8201 13.1799C80.9529 17.3128 84.2008 22.1234 86.4602 27.4801C88.8044 33.0345 90 38.9278 90 45C90 51.0722 88.8138 56.9655 86.4602 62.5199C84.1914 67.8766 80.9529 72.6872 76.8201 76.8201C72.6872 80.9529 67.8766 84.2008 62.5199 86.4602C56.9655 88.8138 51.0722 90 45 90ZM45 4.69769C22.7824 4.69769 4.70711 22.773 4.70711 44.9906C4.70711 67.2081 22.7824 85.2835 45 85.2835C67.2176 85.2835 85.2929 67.2081 85.2929 44.9906C85.2929 22.7824 67.2176 4.69769 45 4.69769Z" fill="#DEC8FE"/>
</svg>
