<svg width="138" height="160" viewBox="0 0 138 160" fill="none" xmlns="http://www.w3.org/2000/svg">
<path d="M15.9802 13.4409C9.13524 22.5824 5.31329 33.8435 4.79212 45.2347C4.2788 56.6902 6.99261 68.2067 13.0648 77.9824C18.9421 87.4431 27.7995 94.9485 37.8644 99.6469C42.8976 102.002 48.2873 103.65 53.7865 104.488C59.3258 105.335 65.1238 105.42 70.639 104.367C76.3195 103.28 82.0548 100.831 85.6022 96.056C89.3364 90.9973 91.1644 84.5297 91.1945 78.2822C91.2151 71.9577 89.8079 65.4691 86.6682 59.9487C85.2734 57.4995 83.6085 55.1876 81.3983 53.4248C79.4331 51.8536 77.1333 50.6362 74.7521 49.8198C70.2882 48.2808 64.6582 47.758 60.6771 50.8004C58.627 52.368 57.2312 54.8071 56.1165 57.0944C54.826 59.7551 53.8607 62.6237 53.356 65.5272C52.8594 68.3905 52.9931 71.3983 53.164 74.2842C53.3614 77.4927 53.7771 80.6745 54.3983 83.8311C55.6519 90.1299 57.6955 96.2799 60.5023 102.063C63.2404 107.71 66.6642 113.209 70.9085 117.851C74.9896 122.331 79.9364 125.896 85.3394 128.611C97.3555 134.66 110.975 136.134 124.257 136.02C127.694 135.99 131.119 135.857 134.551 135.671C135.251 135.638 135.758 134.885 135.678 134.23C135.588 133.498 134.936 133.069 134.236 133.103C121.066 133.803 107.449 133.841 94.7794 129.697C89.3612 127.923 84.1565 125.445 79.5366 122.1C74.8014 118.665 71.0023 114.359 67.7502 109.517C60.9455 99.4013 56.7964 87.4479 55.8302 75.3002C55.6061 72.5121 55.4192 69.6021 55.7824 66.8203C56.1357 64.17 56.9526 61.5803 58.0227 59.1421C58.962 57.0196 60.2119 54.5593 61.9616 53.0937C63.4975 51.7976 65.4036 51.2905 67.4372 51.1848C71.8959 50.9777 76.7137 52.8514 80.128 55.7181C82.0882 57.3551 83.6167 59.6185 84.8082 61.8971C86.2041 64.5678 87.208 67.4429 87.8152 70.3796C89.022 76.1889 88.9602 82.2838 86.9513 87.9133C85.9929 90.6247 84.651 93.2917 82.7535 95.4663C81.0379 97.4231 78.818 98.8811 76.4434 99.9279C71.508 102.097 65.9218 102.676 60.5702 102.511C55.31 102.347 50.0582 101.399 45.0554 99.7178C35.1059 96.387 26.049 90.3399 19.3483 82.2445C12.4491 73.9127 8.4372 63.611 7.5237 52.8516C6.61492 42.1308 8.77836 31.1641 13.8188 21.6569C15.0475 19.3426 16.4588 17.1364 18.0271 15.0412C19.0094 13.6956 16.9769 12.1065 15.9802 13.4409Z" fill="#704FE6"/>
<path d="M129.925 145.376C129.956 145.203 130.002 145.041 130.045 144.866C130.02 144.973 129.981 145.082 129.955 145.19C130.287 144.067 130.864 143.032 131.417 142.013C131.989 140.939 132.576 139.877 133.176 138.812C133.519 138.21 133.875 137.606 134.231 137.002C134.178 137.099 134.123 137.184 134.057 137.284C134.467 136.582 134.918 135.901 135.313 135.188C135.806 134.319 135.76 133.204 135.08 132.44C134.597 131.899 133.974 131.493 133.408 131.028C132.888 130.61 132.379 130.177 131.894 129.728C131.336 129.222 130.79 128.703 130.27 128.18C130.345 128.262 130.419 128.331 130.507 128.411C129.079 126.97 127.782 125.421 126.601 123.767C126.27 123.299 125.938 122.818 125.616 122.323C125.453 122.057 125.078 121.868 124.774 121.827C124.454 121.775 124.048 121.864 123.8 122.076C123.553 122.289 123.34 122.576 123.304 122.919C123.269 123.276 123.36 123.59 123.554 123.892C125.577 127.008 128.047 129.821 130.846 132.241C131.225 132.573 131.616 132.89 132.007 133.207C132.396 133.511 132.822 133.798 133.178 134.146C133.102 134.064 133.029 133.994 132.941 133.914C133.03 134.007 133.107 134.102 133.187 134.223C133.136 134.125 133.072 134.028 133.021 133.93C133.07 134.015 133.107 134.102 133.131 134.19C133.104 134.076 133.077 133.962 133.037 133.85C133.059 133.926 133.07 134.015 133.067 134.094C133.066 133.977 133.064 133.86 133.076 133.741C133.074 133.832 133.058 133.913 133.042 133.993C133.068 133.885 133.106 133.776 133.132 133.669C133.077 133.858 132.993 134.025 132.897 134.193C132.95 134.095 133.005 134.01 133.071 133.911C131.416 136.682 129.746 139.441 128.314 142.328C127.894 143.161 127.557 144.024 127.37 144.946C127.305 145.267 127.432 145.668 127.62 145.919C127.807 146.17 128.146 146.389 128.462 146.415C129.181 146.536 129.778 146.085 129.925 145.376Z" fill="#704FE6"/>
</svg>
