<svg width="127" height="128" viewBox="0 0 127 128" fill="none" xmlns="http://www.w3.org/2000/svg">
  <!-- Background -->
  <path d="M127 63.8469C127 67.8987 121.387 71.3859 120.623 75.2052C119.826 79.1573 123.679 84.5043 122.184 88.1576C120.657 91.8773 114.147 92.9068 111.922 96.1947C109.697 99.5159 111.191 105.926 108.402 108.749C105.579 111.572 99.1689 110.044 95.8478 112.269C92.5599 114.461 91.4971 120.97 87.8107 122.531C84.1574 124.026 78.8436 120.206 74.8583 120.97C71.0058 121.734 67.5518 127.347 63.5 127.347C59.4482 127.347 55.961 121.734 52.1417 120.97C48.1896 120.173 42.8426 124.026 39.1893 122.531C35.4697 121.004 34.4401 114.494 31.1522 112.269C27.8311 110.044 21.4213 111.538 18.5983 108.749C15.7754 105.926 17.3031 99.5159 15.0779 96.1947C12.886 92.9068 6.37657 91.844 4.81564 88.1576C3.32113 84.5043 7.14043 79.1905 6.37657 75.2052C5.61271 71.3527 0 67.8987 0 63.8469C0 59.7951 5.61271 56.3079 6.37657 52.4887C7.17364 48.5365 3.32113 43.1895 4.81564 39.5363C6.34336 35.8166 12.8528 34.787 15.0779 31.4991C17.3031 28.178 15.8086 21.7682 18.5983 18.9452C21.4213 16.1223 27.8311 17.65 31.1522 15.4249C34.4401 13.2329 35.5029 6.72349 39.1893 5.16256C42.8426 3.66805 48.1564 7.48735 52.1417 6.72349C55.9942 5.95963 59.4482 0.346924 63.5 0.346924C67.5518 0.346924 71.039 5.95963 74.8583 6.72349C78.8104 7.52056 84.1574 3.66805 87.8107 5.16256C91.5303 6.69028 92.5599 13.1997 95.8478 15.4249C99.1689 17.65 105.579 16.1555 108.402 18.9452C111.225 21.7682 109.697 28.178 111.922 31.4991C114.114 34.787 120.623 35.8498 122.184 39.5363C123.679 43.1895 119.86 48.5033 120.623 52.4887C121.387 56.3412 127 59.7951 127 63.8469Z" fill="white" fill-opacity="0.6"/>
  <g transform="translate(35 ,34)">
   <path d="M30.119 46.6915C30.5907 46.8013 30.6369 47.4268 30.1794 47.5856C30.0081 47.6451 29.8338 47.7042 29.6565 47.7633L25.9698 48.9766C16.7065 51.9633 11.8298 49.4666 8.81982 40.2033L5.83315 30.9866C2.84649 21.7233 5.31982 16.8233 14.5832 13.8366L17.1605 12.9831C17.5633 12.8497 17.9456 13.2498 17.8107 13.6522C17.5206 14.5174 17.2593 15.4655 17.0098 16.4966L14.7232 26.2733C12.1565 37.2633 15.9132 43.3299 26.9032 45.9433L30.119 46.6915Z" fill="#121212"/>
<path d="M40.0631 7.49006L36.1664 6.58006C28.3731 4.73673 23.7298 6.25339 20.9998 11.9001C20.2998 13.3234 19.7398 15.0501 19.2731 17.0334L16.9864 26.8101C14.6998 36.5634 17.7098 41.3701 27.4398 43.6801L31.3598 44.6134C32.7131 44.9401 33.9731 45.1501 35.1398 45.2434C42.4198 45.9434 46.2931 42.5367 48.2531 34.1134L50.5398 24.3601C52.8264 14.6067 49.8398 9.77673 40.0631 7.49006ZM35.6764 31.1034C35.4664 31.8967 34.7664 32.4101 33.9731 32.4101C33.8331 32.4101 33.6931 32.3867 33.5298 32.3634L26.7398 30.6367C25.8064 30.4034 25.2464 29.4467 25.4798 28.5134C25.7131 27.5801 26.6698 27.0201 27.6031 27.2534L34.3931 28.9801C35.3498 29.2134 35.9098 30.1701 35.6764 31.1034ZM42.5131 23.2167C42.3031 24.0101 41.6031 24.5234 40.8098 24.5234C40.6698 24.5234 40.5298 24.5001 40.3664 24.4767L29.0498 21.6067C28.1164 21.3734 27.5564 20.4167 27.7898 19.4834C28.0231 18.5501 28.9798 17.9901 29.9131 18.2234L41.2298 21.0934C42.1864 21.3034 42.7464 22.2601 42.5131 23.2167Z" fill="#121212"/>
  </g>
<g transform="translate(127,0) scale(-1,1)">
    <path d="M90.4007 33.7476L87 30.3469" stroke="black" stroke-width="2.17224" stroke-miterlimit="10" stroke-linecap="round"/>
    <path d="M98.0862 41.4329L94.6855 38.0322" stroke="black" stroke-width="2.17224" stroke-miterlimit="10" stroke-linecap="round"/>
    <path d="M90.4007 38.0322L87 41.4329" stroke="black" stroke-width="2.17224" stroke-miterlimit="10" stroke-linecap="round"/>
    <path d="M98.0862 30.3469L94.6855 33.7476" stroke="black" stroke-width="2.17224" stroke-miterlimit="10" stroke-linecap="round"/>
    <path d="M30.8753 85.7213L27.501 82.3469" stroke="black" stroke-width="2.15541" stroke-miterlimit="10" stroke-linecap="round"/>
    <path d="M38.5013 93.347L35.127 89.9727" stroke="black" stroke-width="2.15541" stroke-miterlimit="10" stroke-linecap="round"/>
    <path d="M30.8753 89.9727L27.501 93.347" stroke="black" stroke-width="2.15541" stroke-miterlimit="10" stroke-linecap="round"/>
    <path d="M38.5013 82.3469L35.127 85.7213" stroke="black" stroke-width="2.15541" stroke-miterlimit="10" stroke-linecap="round"/>
  </g>
</svg>


