<svg width="134" height="220" viewBox="0 0 134 220" fill="none" xmlns="http://www.w3.org/2000/svg">
<path d="M109.499 137.153C94.4256 137.153 82.1699 124.897 82.1699 109.824C82.1699 94.7506 94.4256 82.4949 109.499 82.4949C124.572 82.4949 136.828 94.7506 136.828 109.824C136.805 124.897 124.55 137.153 109.499 137.153ZM109.499 93.9717C100.748 93.9717 93.6239 101.096 93.6239 109.847C93.6239 118.598 100.748 125.722 109.499 125.722C118.25 125.722 125.374 118.598 125.374 109.847C125.374 101.096 118.25 93.9717 109.499 93.9717Z" fill="#704FE6"/>
<path d="M109.547 157.976C106.248 157.976 102.95 157.633 99.6967 156.969C87.1202 154.357 76.3077 146.981 69.2521 136.237C62.1964 125.493 59.7681 112.642 62.3796 100.042C64.6475 89.138 70.6723 79.3105 79.3086 72.3465C87.8533 65.4741 98.5513 61.6943 109.456 61.6943C112.754 61.6943 116.053 62.0379 119.306 62.7023C131.882 65.3138 142.695 72.6901 149.751 83.434C156.806 94.1778 159.234 107.029 156.623 119.629C154.355 130.533 148.33 140.36 139.694 147.324C131.126 154.197 120.428 157.976 109.547 157.976ZM109.456 73.1483C92.2058 73.1483 77.1095 85.4269 73.5816 102.356C69.4582 122.148 82.218 141.62 102.01 145.744C104.485 146.271 107.027 146.522 109.524 146.522C126.774 146.522 141.87 134.244 145.398 117.315C147.391 107.716 145.535 97.9347 140.175 89.7336C134.815 81.5326 126.568 75.9202 116.969 73.9272C114.495 73.4232 111.952 73.1483 109.456 73.1483Z" fill="#704FE6"/>
<path d="M109.569 178.113C107.462 178.113 105.331 178.021 103.201 177.815C85.0349 176.143 68.6329 167.483 56.9727 153.464C45.3126 139.444 39.8376 121.713 41.5099 103.57C43.0905 86.5266 50.925 70.7888 63.616 59.3119C76.2154 47.8809 92.48 41.6041 109.409 41.6041C111.517 41.6041 113.647 41.6957 115.777 41.9019C133.943 43.5742 150.346 52.2334 162.006 66.253C173.666 80.2727 179.141 98.0035 177.469 116.17C175.888 133.213 168.053 148.951 155.362 160.428C142.763 171.813 126.498 178.113 109.569 178.113ZM109.409 53.0352C79.9265 53.0352 55.644 75.2101 52.918 104.624C50.0316 135.825 73.0541 163.543 104.255 166.43C106.019 166.59 107.805 166.682 109.569 166.682C139.052 166.682 163.334 144.507 166.06 115.093C168.947 83.8922 145.924 56.1736 114.724 53.2872C112.96 53.1039 111.173 53.0352 109.409 53.0352Z" fill="#704FE6"/>
<path d="M109.546 198.638C108.515 198.638 107.461 198.615 106.407 198.592C94.4262 198.18 82.8806 195.431 72.091 190.414C61.6679 185.581 52.4131 178.846 44.5327 170.415C36.6524 161.985 30.6047 152.272 26.5042 141.551C22.2433 130.441 20.319 118.735 20.7313 106.754C21.5331 83.5943 31.1545 61.9921 47.8544 45.9107C64.4855 29.8751 86.3627 21.0327 109.431 21.0327C110.462 21.0327 111.516 21.0556 112.569 21.0785C124.55 21.4909 136.096 24.2398 146.885 29.2566C157.309 34.0902 166.563 40.8252 174.444 49.2553C182.324 57.6854 188.372 67.3984 192.472 78.1193C196.733 89.2297 198.657 100.936 198.245 112.916C197.443 136.076 187.822 157.679 171.122 173.76C154.491 189.818 132.614 198.638 109.546 198.638ZM109.431 32.4867C67.5552 32.4867 33.6285 65.2908 32.1853 107.167C30.6963 149.798 64.1878 185.672 106.797 187.161C107.713 187.184 108.629 187.207 109.523 187.207C151.398 187.207 185.325 154.403 186.768 112.527C188.257 69.8954 154.766 34.0215 112.157 32.5325C111.264 32.5096 110.347 32.4867 109.431 32.4867Z" fill="#704FE6"/>
<path d="M109.5 219.347C94.7244 219.347 80.384 216.46 66.8683 210.734C53.8337 205.213 42.1277 197.332 32.0711 187.276C22.0145 177.219 14.1113 165.513 8.61341 152.479C2.90933 138.963 0 124.623 0 109.847C0 95.0713 2.88642 80.7309 8.61341 67.2152C14.1342 54.1806 22.0145 42.4746 32.0711 32.4181C42.1277 22.3615 53.8337 14.4582 66.8683 8.96034C80.384 3.25626 94.7244 0.346924 109.5 0.346924C124.276 0.346924 138.616 3.23335 152.132 8.96034C165.166 14.4812 176.872 22.3615 186.929 32.4181C196.985 42.4746 204.889 54.1806 210.387 67.2152C216.091 80.7309 219 95.0713 219 109.847C219 124.623 216.114 138.963 210.387 152.479C204.866 165.513 196.985 177.219 186.929 187.276C176.872 197.332 165.166 205.236 152.132 210.734C138.616 216.46 124.276 219.347 109.5 219.347ZM109.5 11.778C55.4372 11.778 11.454 55.7612 11.454 109.824C11.454 163.887 55.4372 207.87 109.5 207.87C163.563 207.87 207.546 163.887 207.546 109.824C207.546 55.7841 163.563 11.778 109.5 11.778Z" fill="#704FE6"/>
</svg>
