<svg width="113" height="148" viewBox="0 0 113 148" fill="none" xmlns="http://www.w3.org/2000/svg">
<path d="M6.24192 12.4837C9.68919 12.4837 12.4836 9.6891 12.4836 6.24183C12.4836 2.79456 9.68919 0 6.24192 0C2.79466 0 0 2.79456 0 6.24183C0 9.6891 2.79466 12.4837 6.24192 12.4837Z" fill="white" fill-opacity="0.7"/>
<path d="M33.5268 12.4837C36.9741 12.4837 39.7688 9.6891 39.7688 6.24183C39.7688 2.79456 36.9741 0 33.5268 0C30.0796 0 27.2852 2.79456 27.2852 6.24183C27.2852 9.6891 30.0796 12.4837 33.5268 12.4837Z" fill="white" fill-opacity="0.7"/>
<path d="M60.8103 12.4837C64.2576 12.4837 67.052 9.6891 67.052 6.24183C67.052 2.79456 64.2576 0 60.8103 0C57.363 0 54.5684 2.79456 54.5684 6.24183C54.5684 9.6891 57.363 12.4837 60.8103 12.4837Z" fill="white" fill-opacity="0.7"/>
<path d="M88.1421 12.4837C91.5894 12.4837 94.384 9.6891 94.384 6.24183C94.384 2.79456 91.5894 0 88.1421 0C84.6948 0 81.9004 2.79456 81.9004 6.24183C81.9004 9.6891 84.6948 12.4837 88.1421 12.4837Z" fill="white" fill-opacity="0.7"/>
<path d="M115.427 12.4837C118.874 12.4837 121.669 9.6891 121.669 6.24183C121.669 2.79456 118.874 0 115.427 0C111.98 0 109.185 2.79456 109.185 6.24183C109.185 9.6891 111.98 12.4837 115.427 12.4837Z" fill="white" fill-opacity="0.7"/>
<path d="M6.24192 34.9673C9.68919 34.9673 12.4836 32.1727 12.4836 28.7255C12.4836 25.2782 9.68919 22.4836 6.24192 22.4836C2.79466 22.4836 0 25.2782 0 28.7255C0 32.1727 2.79466 34.9673 6.24192 34.9673Z" fill="white" fill-opacity="0.7"/>
<path d="M33.5268 34.9674C36.9741 34.9674 39.7688 32.1729 39.7688 28.7256C39.7688 25.2783 36.9741 22.4838 33.5268 22.4838C30.0796 22.4838 27.2852 25.2783 27.2852 28.7256C27.2852 32.1729 30.0796 34.9674 33.5268 34.9674Z" fill="white" fill-opacity="0.7"/>
<path d="M60.8103 34.9673C64.2576 34.9673 67.052 32.1727 67.052 28.7255C67.052 25.2782 64.2576 22.4836 60.8103 22.4836C57.363 22.4836 54.5684 25.2782 54.5684 28.7255C54.5684 32.1727 57.363 34.9673 60.8103 34.9673Z" fill="white" fill-opacity="0.7"/>
<path d="M88.1421 34.9674C91.5894 34.9674 94.384 32.1729 94.384 28.7256C94.384 25.2783 91.5894 22.4838 88.1421 22.4838C84.6948 22.4838 81.9004 25.2783 81.9004 28.7256C81.9004 32.1729 84.6948 34.9674 88.1421 34.9674Z" fill="white" fill-opacity="0.7"/>
<path d="M115.427 34.9674C118.874 34.9674 121.669 32.1729 121.669 28.7256C121.669 25.2783 118.874 22.4838 115.427 22.4838C111.98 22.4838 109.185 25.2783 109.185 28.7256C109.185 32.1729 111.98 34.9674 115.427 34.9674Z" fill="white" fill-opacity="0.7"/>
<path d="M6.24192 57.451C9.68919 57.451 12.4836 54.6564 12.4836 51.2091C12.4836 47.7618 9.68919 44.9673 6.24192 44.9673C2.79466 44.9673 0 47.7618 0 51.2091C0 54.6564 2.79466 57.451 6.24192 57.451Z" fill="white" fill-opacity="0.7"/>
<path d="M33.5268 57.4512C36.9741 57.4512 39.7688 54.6566 39.7688 51.2094C39.7688 47.7621 36.9741 44.9675 33.5268 44.9675C30.0796 44.9675 27.2852 47.7621 27.2852 51.2094C27.2852 54.6566 30.0796 57.4512 33.5268 57.4512Z" fill="white" fill-opacity="0.7"/>
<path d="M60.8103 57.451C64.2576 57.451 67.052 54.6564 67.052 51.2091C67.052 47.7618 64.2576 44.9673 60.8103 44.9673C57.363 44.9673 54.5684 47.7618 54.5684 51.2091C54.5684 54.6564 57.363 57.451 60.8103 57.451Z" fill="white" fill-opacity="0.7"/>
<path d="M88.1421 57.4512C91.5894 57.4512 94.384 54.6566 94.384 51.2094C94.384 47.7621 91.5894 44.9675 88.1421 44.9675C84.6948 44.9675 81.9004 47.7621 81.9004 51.2094C81.9004 54.6566 84.6948 57.4512 88.1421 57.4512Z" fill="white" fill-opacity="0.7"/>
<path d="M115.427 57.4512C118.874 57.4512 121.669 54.6566 121.669 51.2094C121.669 47.7621 118.874 44.9675 115.427 44.9675C111.98 44.9675 109.185 47.7621 109.185 51.2094C109.185 54.6566 111.98 57.4512 115.427 57.4512Z" fill="white" fill-opacity="0.7"/>
<path d="M6.24192 79.9347C9.68919 79.9347 12.4836 77.1401 12.4836 73.6929C12.4836 70.2456 9.68919 67.451 6.24192 67.451C2.79466 67.451 0 70.2456 0 73.6929C0 77.1401 2.79466 79.9347 6.24192 79.9347Z" fill="white" fill-opacity="0.7"/>
<path d="M33.5268 79.9345C36.9741 79.9345 39.7688 77.1399 39.7688 73.6926C39.7688 70.2454 36.9741 67.4508 33.5268 67.4508C30.0796 67.4508 27.2852 70.2454 27.2852 73.6926C27.2852 77.1399 30.0796 79.9345 33.5268 79.9345Z" fill="white" fill-opacity="0.7"/>
<path d="M60.8103 79.9347C64.2576 79.9347 67.052 77.1401 67.052 73.6929C67.052 70.2456 64.2576 67.451 60.8103 67.451C57.363 67.451 54.5684 70.2456 54.5684 73.6929C54.5684 77.1401 57.363 79.9347 60.8103 79.9347Z" fill="white" fill-opacity="0.7"/>
<path d="M88.1421 79.9345C91.5894 79.9345 94.384 77.1399 94.384 73.6926C94.384 70.2454 91.5894 67.4508 88.1421 67.4508C84.6948 67.4508 81.9004 70.2454 81.9004 73.6926C81.9004 77.1399 84.6948 79.9345 88.1421 79.9345Z" fill="white" fill-opacity="0.7"/>
<path d="M115.427 79.9345C118.874 79.9345 121.669 77.1399 121.669 73.6926C121.669 70.2454 118.874 67.4508 115.427 67.4508C111.98 67.4508 109.185 70.2454 109.185 73.6926C109.185 77.1399 111.98 79.9345 115.427 79.9345Z" fill="white" fill-opacity="0.7"/>
<path d="M6.24192 102.418C9.68919 102.418 12.4836 99.6238 12.4836 96.1765C12.4836 92.7293 9.68919 89.9347 6.24192 89.9347C2.79466 89.9347 0 92.7293 0 96.1765C0 99.6238 2.79466 102.418 6.24192 102.418Z" fill="white" fill-opacity="0.7"/>
<path d="M33.5268 102.418C36.9741 102.418 39.7688 99.6237 39.7688 96.1764C39.7688 92.7291 36.9741 89.9346 33.5268 89.9346C30.0796 89.9346 27.2852 92.7291 27.2852 96.1764C27.2852 99.6237 30.0796 102.418 33.5268 102.418Z" fill="white" fill-opacity="0.7"/>
<path d="M60.8103 102.418C64.2576 102.418 67.052 99.6238 67.052 96.1765C67.052 92.7293 64.2576 89.9347 60.8103 89.9347C57.363 89.9347 54.5684 92.7293 54.5684 96.1765C54.5684 99.6238 57.363 102.418 60.8103 102.418Z" fill="white" fill-opacity="0.7"/>
<path d="M88.1421 102.418C91.5894 102.418 94.384 99.6237 94.384 96.1764C94.384 92.7291 91.5894 89.9346 88.1421 89.9346C84.6948 89.9346 81.9004 92.7291 81.9004 96.1764C81.9004 99.6237 84.6948 102.418 88.1421 102.418Z" fill="white" fill-opacity="0.7"/>
<path d="M115.427 102.418C118.874 102.418 121.669 99.6237 121.669 96.1764C121.669 92.7291 118.874 89.9346 115.427 89.9346C111.98 89.9346 109.185 92.7291 109.185 96.1764C109.185 99.6237 111.98 102.418 115.427 102.418Z" fill="white" fill-opacity="0.7"/>
<path d="M6.24192 124.902C9.68919 124.902 12.4836 122.107 12.4836 118.66C12.4836 115.213 9.68919 112.418 6.24192 112.418C2.79466 112.418 0 115.213 0 118.66C0 122.107 2.79466 124.902 6.24192 124.902Z" fill="white" fill-opacity="0.7"/>
<path d="M33.5268 124.902C36.9741 124.902 39.7688 122.107 39.7688 118.66C39.7688 115.213 36.9741 112.418 33.5268 112.418C30.0796 112.418 27.2852 115.213 27.2852 118.66C27.2852 122.107 30.0796 124.902 33.5268 124.902Z" fill="white" fill-opacity="0.7"/>
<path d="M60.8103 124.902C64.2576 124.902 67.052 122.107 67.052 118.66C67.052 115.213 64.2576 112.418 60.8103 112.418C57.363 112.418 54.5684 115.213 54.5684 118.66C54.5684 122.107 57.363 124.902 60.8103 124.902Z" fill="white" fill-opacity="0.7"/>
<path d="M88.1421 124.902C91.5894 124.902 94.384 122.107 94.384 118.66C94.384 115.213 91.5894 112.418 88.1421 112.418C84.6948 112.418 81.9004 115.213 81.9004 118.66C81.9004 122.107 84.6948 124.902 88.1421 124.902Z" fill="white" fill-opacity="0.7"/>
<path d="M115.427 124.902C118.874 124.902 121.669 122.107 121.669 118.66C121.669 115.213 118.874 112.418 115.427 112.418C111.98 112.418 109.185 115.213 109.185 118.66C109.185 122.107 111.98 124.902 115.427 124.902Z" fill="white" fill-opacity="0.7"/>
<path d="M6.24192 147.386C9.68919 147.386 12.4836 144.591 12.4836 141.144C12.4836 137.697 9.68919 134.902 6.24192 134.902C2.79466 134.902 0 137.697 0 141.144C0 144.591 2.79466 147.386 6.24192 147.386Z" fill="white" fill-opacity="0.7"/>
<path d="M33.5268 147.386C36.9741 147.386 39.7688 144.591 39.7688 141.144C39.7688 137.696 36.9741 134.902 33.5268 134.902C30.0796 134.902 27.2852 137.696 27.2852 141.144C27.2852 144.591 30.0796 147.386 33.5268 147.386Z" fill="white" fill-opacity="0.7"/>
<path d="M60.8103 147.386C64.2576 147.386 67.052 144.591 67.052 141.144C67.052 137.697 64.2576 134.902 60.8103 134.902C57.363 134.902 54.5684 137.697 54.5684 141.144C54.5684 144.591 57.363 147.386 60.8103 147.386Z" fill="white" fill-opacity="0.7"/>
<path d="M88.1421 147.386C91.5894 147.386 94.384 144.591 94.384 141.144C94.384 137.696 91.5894 134.902 88.1421 134.902C84.6948 134.902 81.9004 137.696 81.9004 141.144C81.9004 144.591 84.6948 147.386 88.1421 147.386Z" fill="white" fill-opacity="0.7"/>
<path d="M115.427 147.386C118.874 147.386 121.669 144.591 121.669 141.144C121.669 137.696 118.874 134.902 115.427 134.902C111.98 134.902 109.185 137.696 109.185 141.144C109.185 144.591 111.98 147.386 115.427 147.386Z" fill="white" fill-opacity="0.7"/>
</svg>
