<svg width="294" height="233" viewBox="0 0 294 233" fill="none" xmlns="http://www.w3.org/2000/svg">
<path opacity="0.2" d="M134.36 220.421C111.373 229.83 86.1396 232.773 59.751 232.146C49.9787 231.921 39.226 229.317 28.4057 224.428C10.7816 216.471 -0.125464 194.146 0.465224 168.54C0.816355 153.401 4.13859 141.538 8.57211 131.37C14.8158 117.009 21.3568 102.97 29.0338 90.8504C35.5735 80.5025 43.8047 72.9225 51.4653 64.4303C56.2878 59.1027 61.0397 53.5471 66.5038 49.5231C79.6384 39.8292 92.7757 30.0875 106.646 22.0093C121.964 13.0845 139.456 10.0708 158.962 12.5435C166.008 13.4345 171.762 9.52579 178.109 7.805C181.227 6.95585 184.327 6.06663 187.453 5.23751C190.794 4.36729 194.048 3.22891 197.549 2.80717C206.701 1.67218 215.799 0.349157 225.221 0.038716C239.196 -0.420986 254.098 3.10913 270.656 16.2187C288.573 30.4098 296.294 53.4952 292.701 73.5506C289.215 93.0255 280.414 104.341 272.055 116.388C259.932 133.891 245.895 147.807 230.663 159.359C211.191 174.11 191.634 188.709 171.458 201.924C159.782 209.576 146.783 214.333 134.388 220.409L134.36 220.421ZM96.5649 44.824C96.3324 44.3348 96.1013 43.8216 95.8688 43.3324C90.7507 46.3045 85.2058 48.446 80.588 52.4289C65.6827 65.2731 50.7273 78.021 38.6042 96.202C28.1005 111.948 17.9909 128.281 12.3559 151.201C10.2089 159.946 8.8417 169.846 8.26166 180.266C7.60163 191.956 12.862 202.59 21.3776 208.395C24.3976 210.458 27.5872 212.639 30.3357 213.248C41.0312 215.549 51.7824 218.013 62.1333 219.006C84.6445 221.143 104.996 216.754 124.418 209.919C136.744 205.576 148.482 199.65 159.959 193.248C173.837 185.516 187.596 177.437 200.631 167.877C214.866 157.408 228.455 145.544 241.884 133.394C255.791 120.816 268.407 105.774 278.061 85.7963C281.719 78.2337 283.977 68.3215 285.684 58.1671C287.039 50.1407 284.016 42.3096 277.681 34.823C274.052 30.5317 270.136 26.8944 266.374 24.0125C253.637 14.2281 242.223 12.1734 231.261 11.4996C209.132 10.1653 188.785 14.1312 169.335 20.6516C165.677 21.8845 161.977 23.0411 158.142 23.7854C150.086 25.3848 141.733 26.1473 133.864 28.2313C126.446 30.2016 119.538 33.5056 112.329 36.0445C111.071 36.4868 109.115 35.298 108.025 36.0455C104.084 38.7017 100.376 41.8472 96.5757 44.7962L96.5649 44.824Z" fill="#DEC8FE"/>
<rect x="159.338" y="65.6423" width="121.322" height="48" rx="24" transform="rotate(19.1017 159.338 65.6423)" fill="#FFD25D"/>
<path d="M181.399 106.089C181.228 106.03 181.116 105.914 181.061 105.743C181.017 105.576 181.04 105.399 181.13 105.214L186.712 95.0899C186.793 94.9656 186.893 94.8795 187.011 94.8315C187.13 94.7836 187.251 94.7812 187.376 94.8244C187.557 94.8872 187.67 95.0024 187.713 95.1699C187.772 95.3299 187.751 95.5005 187.65 95.6814L182.062 105.823C182.003 105.955 181.909 106.043 181.78 106.087C181.662 106.135 181.535 106.136 181.399 106.089ZM183.32 97.9536C183.162 97.8986 183.043 97.8005 182.965 97.6591C182.902 97.5104 182.899 97.3567 182.954 97.1979C183.005 97.0505 183.097 96.9491 183.23 96.8937C183.375 96.8423 183.527 96.8441 183.686 96.899L192.224 99.856C192.383 99.911 192.494 100.013 192.556 100.162C192.623 100.299 192.629 100.447 192.574 100.606C192.523 100.753 192.431 100.855 192.297 100.91C192.164 100.965 192.018 100.966 191.859 100.911L183.32 97.9536ZM185.804 107.614C185.622 107.551 185.504 107.434 185.449 107.263C185.406 107.095 185.434 106.921 185.535 106.74L191.118 96.6155C191.187 96.4873 191.281 96.3992 191.4 96.3512C191.518 96.3033 191.645 96.3029 191.781 96.35C191.963 96.4128 192.075 96.528 192.119 96.6955C192.177 96.8555 192.157 97.0261 192.056 97.2071L186.467 107.349C186.397 107.477 186.303 107.565 186.185 107.613C186.067 107.661 185.94 107.661 185.804 107.614ZM180.985 102.497C180.837 102.446 180.725 102.35 180.647 102.209C180.584 102.06 180.578 101.912 180.629 101.765C180.68 101.617 180.772 101.516 180.906 101.461C181.051 101.409 181.197 101.409 181.344 101.46L189.9 104.423C190.058 104.478 190.171 104.574 190.238 104.711C190.305 104.849 190.31 104.997 190.255 105.156C190.204 105.303 190.112 105.404 189.979 105.46C189.845 105.515 189.699 105.515 189.54 105.46L180.985 102.497ZM195.309 111.096C194.436 110.794 193.73 110.34 193.19 109.734C192.651 109.128 192.31 108.426 192.167 107.627C192.025 106.829 192.109 105.981 192.419 105.086C192.753 104.122 193.224 103.365 193.834 102.814C194.455 102.267 195.129 101.916 195.856 101.761C196.598 101.599 197.309 101.636 197.989 101.872C198.488 102.044 198.939 102.302 199.341 102.644C199.758 102.979 200.087 103.386 200.329 103.863C200.585 104.333 200.734 104.854 200.777 105.428C200.831 106.005 200.756 106.627 200.55 107.292C200.492 107.424 200.394 107.524 200.257 107.591C200.123 107.646 199.988 107.65 199.852 107.603L193.032 105.241L193.146 104.252L199.847 106.572L199.555 106.7L199.673 106.36C199.813 105.811 199.799 105.299 199.634 104.822C199.469 104.346 199.21 103.939 198.857 103.601C198.504 103.263 198.101 103.015 197.648 102.858C197.307 102.74 196.932 102.687 196.522 102.697C196.124 102.711 195.726 102.815 195.329 103.008C194.947 103.193 194.587 103.481 194.249 103.872C193.914 104.251 193.641 104.747 193.429 105.359C193.197 106.028 193.123 106.682 193.207 107.321C193.29 107.959 193.532 108.526 193.933 109.02C194.344 109.518 194.907 109.891 195.622 110.138C196.019 110.275 196.396 110.342 196.752 110.339C197.109 110.336 197.438 110.284 197.739 110.185C198.044 110.075 198.311 109.945 198.54 109.796C198.7 109.737 198.843 109.73 198.968 109.773C199.081 109.812 199.162 109.891 199.21 110.009C199.269 110.131 199.279 110.249 199.24 110.362C199.193 110.498 199.095 110.598 198.946 110.661C198.464 110.951 197.898 111.155 197.248 111.273C196.602 111.379 195.955 111.32 195.309 111.096ZM208.236 105.42C208.984 105.679 209.527 106.039 209.863 106.498C210.214 106.95 210.396 107.47 210.408 108.058C210.436 108.639 210.341 109.242 210.125 109.865L208.394 114.866C208.346 115.002 208.254 115.103 208.117 115.17C207.979 115.237 207.843 115.247 207.707 115.199C207.548 115.144 207.441 115.05 207.385 114.917C207.33 114.783 207.326 114.649 207.373 114.512L209.087 109.563C209.244 109.109 209.314 108.67 209.296 108.245C209.278 107.819 209.139 107.434 208.877 107.09C208.627 106.749 208.229 106.485 207.685 106.296C207.197 106.127 206.693 106.08 206.172 106.153C205.663 106.231 205.207 106.41 204.806 106.69C204.404 106.969 204.125 107.336 203.968 107.79L202.253 112.739C202.206 112.875 202.114 112.977 201.977 113.044C201.839 113.11 201.702 113.12 201.566 113.073C201.408 113.018 201.301 112.924 201.245 112.79C201.19 112.657 201.186 112.522 201.233 112.386L203.872 104.766C203.919 104.63 204.005 104.527 204.132 104.456C204.269 104.389 204.411 104.381 204.559 104.432C204.706 104.483 204.808 104.576 204.863 104.709C204.93 104.847 204.939 104.983 204.892 105.119L204.398 106.548L203.794 107.025C203.943 106.67 204.176 106.363 204.494 106.105C204.827 105.84 205.203 105.633 205.622 105.487C206.045 105.328 206.481 105.244 206.929 105.234C207.392 105.217 207.828 105.279 208.236 105.42ZM211.86 117.514C211.672 118.058 211.382 118.472 210.992 118.756C210.609 119.055 210.195 119.242 209.75 119.317C209.305 119.391 208.896 119.364 208.521 119.234C208.374 119.183 208.276 119.099 208.228 118.98C208.169 118.858 208.161 118.735 208.204 118.61L208.228 118.542C208.275 118.406 208.358 118.314 208.476 118.266C208.594 118.218 208.714 118.202 208.835 118.219C209.115 118.253 209.387 118.239 209.649 118.177C209.923 118.12 210.17 117.995 210.388 117.804C210.607 117.613 210.775 117.348 210.893 117.008L213.932 108.231C213.979 108.095 214.066 107.992 214.192 107.921C214.329 107.854 214.472 107.846 214.619 107.897C214.766 107.948 214.868 108.041 214.923 108.174C214.99 108.312 215 108.448 214.953 108.584L211.86 117.514ZM215.084 106.554C214.846 106.471 214.682 106.357 214.593 106.212C214.519 106.059 214.517 105.881 214.588 105.677L214.647 105.507C214.718 105.303 214.833 105.171 214.993 105.112C215.168 105.046 215.369 105.052 215.596 105.131C215.812 105.205 215.956 105.319 216.031 105.472C216.12 105.617 216.129 105.792 216.059 105.996L216 106.166C215.929 106.37 215.812 106.507 215.648 106.577C215.499 106.64 215.311 106.632 215.084 106.554ZM225.078 116.339C224.78 117.201 224.324 117.913 223.71 118.475C223.1 119.025 222.403 119.387 221.619 119.56C220.84 119.722 220.036 119.66 219.208 119.373C218.403 119.094 217.738 118.648 217.214 118.035C216.705 117.414 216.376 116.697 216.226 115.883C216.091 115.062 216.173 114.22 216.472 113.358C216.774 112.485 217.23 111.773 217.84 111.222C218.461 110.676 219.163 110.316 219.947 110.143C220.742 109.974 221.542 110.028 222.348 110.307C223.175 110.594 223.844 111.048 224.353 111.668C224.861 112.289 225.185 113.004 225.324 113.814C225.462 114.624 225.38 115.466 225.078 116.339ZM224.058 115.985C224.297 115.294 224.367 114.632 224.268 114.001C224.173 113.359 223.93 112.798 223.537 112.319C223.159 111.833 222.653 111.48 222.018 111.26C221.405 111.048 220.795 111.014 220.186 111.159C219.581 111.292 219.037 111.58 218.553 112.022C218.085 112.457 217.732 113.02 217.492 113.712C217.253 114.403 217.182 115.065 217.281 115.696C217.391 116.331 217.641 116.894 218.03 117.384C218.423 117.863 218.925 118.208 219.538 118.42C220.173 118.64 220.787 118.682 221.381 118.544C221.99 118.4 222.528 118.11 222.996 117.675C223.464 117.24 223.818 116.677 224.058 115.985ZM235.282 114.844C235.43 114.895 235.531 114.987 235.587 115.121C235.653 115.258 235.663 115.395 235.616 115.531L233.018 123.032C232.7 123.95 232.252 124.659 231.673 125.157C231.09 125.666 230.438 125.973 229.715 126.079C228.989 126.195 228.235 126.118 227.452 125.847C226.965 125.679 226.531 125.465 226.151 125.206C225.778 124.963 225.49 124.711 225.288 124.45C225.18 124.324 225.111 124.192 225.082 124.055C225.054 123.918 225.089 123.797 225.189 123.692C225.301 123.553 225.423 123.475 225.556 123.457C225.697 123.455 225.819 123.504 225.924 123.604C226.082 123.773 226.317 123.994 226.628 124.267C226.94 124.54 227.329 124.757 227.793 124.918C228.417 125.134 229.001 125.19 229.545 125.086C230.1 124.986 230.589 124.73 231.011 124.318C231.429 123.917 231.756 123.376 231.992 122.695L232.416 121.471L232.394 121.92C232.102 122.213 231.75 122.44 231.338 122.602C230.938 122.768 230.506 122.86 230.043 122.878C229.595 122.888 229.144 122.814 228.691 122.657C228.01 122.421 227.49 122.089 227.131 121.66C226.787 121.223 226.592 120.724 226.545 120.161C226.499 119.599 226.589 118.989 226.817 118.332L228.625 113.11C228.672 112.974 228.759 112.87 228.885 112.8C229.011 112.729 229.154 112.721 229.312 112.776C229.46 112.827 229.561 112.92 229.616 113.053C229.683 113.191 229.693 113.327 229.646 113.463L227.891 118.532C227.616 119.326 227.574 119.997 227.765 120.546C227.967 121.098 228.459 121.51 229.242 121.781C229.729 121.95 230.216 121.992 230.703 121.906C231.194 121.809 231.634 121.619 232.025 121.335C232.419 121.04 232.691 120.677 232.84 120.246L234.595 115.177C234.643 115.041 234.729 114.938 234.855 114.867C234.993 114.801 235.135 114.793 235.282 114.844Z" fill="#121212"/>
<rect x="47.7441" y="33.2896" width="121.322" height="48" rx="24" transform="rotate(41.4031 47.7441 33.2896)" fill="#DEC8FE"/>
<path d="M52.371 78.6982C52.236 78.5792 52.1756 78.43 52.1898 78.2505C52.213 78.079 52.3011 77.9247 52.454 77.7876L61.4611 70.5388C61.5834 70.4546 61.7082 70.4127 61.8358 70.4132C61.9634 70.4137 62.0767 70.4576 62.1757 70.5449C62.3197 70.6718 62.3801 70.8211 62.3568 70.9926C62.3506 71.163 62.2665 71.3128 62.1045 71.4421L53.0855 78.7043C52.9813 78.8044 52.8609 78.8502 52.7243 78.8418C52.5968 78.8413 52.479 78.7935 52.371 78.6982ZM57.2362 71.9011C57.1102 71.79 57.0379 71.6543 57.0193 71.4939C57.0177 71.3325 57.0724 71.1887 57.1835 71.0627C57.2867 70.9457 57.4105 70.8869 57.555 70.8863C57.7085 70.8937 57.8483 70.9529 57.9743 71.064L64.752 77.04C64.878 77.1511 64.9418 77.2874 64.9435 77.4488C64.953 77.6013 64.9023 77.7405 64.7912 77.8665C64.688 77.9835 64.5642 78.0423 64.4197 78.0429C64.2752 78.0435 64.1399 77.9882 64.0139 77.8771L57.2362 71.9011ZM55.8678 81.7815C55.7238 81.6545 55.6589 81.5013 55.6731 81.3218C55.6964 81.1503 55.7889 81 55.9509 80.8708L64.958 73.622C65.0712 73.5299 65.1916 73.484 65.3192 73.4845C65.4467 73.485 65.5645 73.5329 65.6725 73.6281C65.8165 73.7551 65.8769 73.9043 65.8537 74.0758C65.8474 74.2462 65.7633 74.3961 65.6014 74.5253L56.5824 81.7876C56.4691 81.8797 56.3487 81.9255 56.2212 81.925C56.0936 81.9246 55.9758 81.8767 55.8678 81.7815ZM53.351 75.2188C53.234 75.1156 53.1662 74.9839 53.1477 74.8235C53.146 74.6621 53.1968 74.5228 53.2999 74.4058C53.4031 74.2888 53.5269 74.23 53.6714 74.2294C53.8249 74.2368 53.9602 74.2921 54.0772 74.3952L60.8684 80.3831C60.9944 80.4942 61.0622 80.626 61.0718 80.7784C61.0814 80.9309 61.0306 81.0701 60.9195 81.1961C60.8163 81.3131 60.6925 81.3719 60.548 81.3725C60.4035 81.3731 60.2682 81.3178 60.1422 81.2067L53.351 75.2188ZM71.6001 77.9906C71.7351 78.1097 71.8673 78.2502 71.9965 78.4121C72.1347 78.5819 72.2305 78.7545 72.2841 78.9296C72.3455 79.0958 72.3167 79.2464 72.1977 79.3814C72.1104 79.4804 71.995 79.5387 71.8516 79.5562C71.7161 79.5647 71.6033 79.5293 71.5133 79.4499C71.4233 79.3706 71.3306 79.2489 71.2353 79.0848C71.1479 78.9118 71.0277 78.7578 70.8747 78.6229C70.6857 78.4562 70.484 78.3584 70.2696 78.3293C70.0632 78.2913 69.8525 78.3216 69.6377 78.4201C69.4307 78.5096 69.2281 78.6669 69.0297 78.8919L62.1966 86.6417C62.1013 86.7497 61.9775 86.8085 61.8251 86.8181C61.6816 86.8356 61.5514 86.7928 61.4344 86.6896C61.3174 86.5864 61.2541 86.4586 61.2445 86.3062C61.2439 86.1617 61.2913 86.0354 61.3865 85.9274L68.2196 78.1776C68.7275 77.6016 69.2829 77.3074 69.8858 77.295C70.4976 77.2905 71.0691 77.5224 71.6001 77.9906ZM69.3157 81.6158C69.4237 81.7111 69.4819 81.8264 69.4905 81.9619C69.499 82.0974 69.4556 82.2192 69.3604 82.3272C69.2651 82.4352 69.1498 82.4935 69.0143 82.502C68.8788 82.5105 68.757 82.4671 68.649 82.3719L65.3412 79.4553C65.2422 79.368 65.1839 79.2527 65.1664 79.1092C65.1658 78.9647 65.2092 78.843 65.2965 78.744C65.3996 78.627 65.515 78.5687 65.6426 78.5692C65.7871 78.5686 65.9088 78.612 66.0078 78.6993L69.3157 81.6158ZM76.4109 87.7039C76.528 87.807 76.5868 87.9309 76.5873 88.0754C76.5969 88.2278 76.5541 88.358 76.4589 88.466L73.1018 92.2734C72.3161 93.1645 71.4649 93.6219 70.5482 93.6455C69.6315 93.6691 68.7456 93.3039 67.8905 92.55C67.0444 91.804 66.5757 90.9747 66.4843 90.0623C66.4019 89.1577 66.7536 88.2599 67.5393 87.3688L70.8963 83.5614C70.9915 83.4534 71.1109 83.3907 71.2543 83.3731C71.4067 83.3636 71.5415 83.4104 71.6585 83.5135C71.7755 83.6167 71.8343 83.7405 71.8349 83.885C71.8444 84.0375 71.8016 84.1677 71.7064 84.2757L68.3494 88.0831C67.7779 88.7311 67.5125 89.377 67.5529 90.0206C67.6103 90.6631 67.9451 91.2542 68.5571 91.7939C69.1782 92.3415 69.811 92.6035 70.4557 92.58C71.1083 92.5475 71.7203 92.2072 72.2918 91.5591L75.6488 87.7518C75.744 87.6438 75.8633 87.581 76.0068 87.5635C76.1502 87.546 76.2849 87.5927 76.4109 87.7039ZM82.3726 92.6004C82.9667 93.1242 83.3321 93.6623 83.4689 94.2149C83.6225 94.7664 83.5934 95.3166 83.3813 95.8655C83.1862 96.4134 82.8704 96.9349 82.4339 97.4299L78.934 101.399C78.8388 101.507 78.715 101.566 78.5625 101.576C78.4101 101.585 78.2799 101.542 78.1719 101.447C78.0458 101.336 77.9826 101.208 77.982 101.064C77.9814 100.919 78.0287 100.793 78.124 100.685L81.5881 96.7562C81.9056 96.3962 82.1367 96.016 82.2816 95.6158C82.4265 95.2156 82.4433 94.8065 82.332 94.3884C82.2297 93.9782 81.9625 93.5827 81.5305 93.2017C81.1434 92.8605 80.695 92.6251 80.1853 92.4956C79.6845 92.374 79.1952 92.3665 78.7173 92.4731C78.2393 92.5796 77.8417 92.8129 77.5242 93.173L74.06 97.1019C73.9648 97.2099 73.841 97.2687 73.6885 97.2783C73.5361 97.2878 73.4059 97.245 73.2979 97.1498C73.1719 97.0387 73.1086 96.9109 73.108 96.7664C73.1074 96.6219 73.1547 96.4956 73.25 96.3876L78.5831 90.339C78.6783 90.231 78.7977 90.1682 78.9411 90.1507C79.0935 90.1411 79.2283 90.1879 79.3453 90.2911C79.4623 90.3943 79.5211 90.5181 79.5217 90.6626C79.5312 90.815 79.4884 90.9453 79.3932 91.0533L78.3932 92.1874L77.6541 92.3996C77.9261 92.1275 78.2582 91.9323 78.6503 91.8141C79.0594 91.6949 79.4858 91.6468 79.9293 91.67C80.3808 91.6841 80.8157 91.7715 81.2339 91.9323C81.669 92.092 82.0486 92.3147 82.3726 92.6004ZM90.1781 99.4826C90.7722 100.006 91.1376 100.545 91.2743 101.097C91.428 101.649 91.3988 102.199 91.1868 102.748C90.9917 103.296 90.6759 103.817 90.2394 104.312L86.7395 108.282C86.6443 108.39 86.5204 108.448 86.368 108.458C86.2156 108.468 86.0853 108.425 85.9773 108.329C85.8513 108.218 85.788 108.091 85.7874 107.946C85.7869 107.802 85.8342 107.675 85.9294 107.567L89.3936 103.638C89.711 103.278 89.9422 102.898 90.0871 102.498C90.232 102.098 90.2488 101.689 90.1375 101.271C90.0352 100.86 89.768 100.465 89.3359 100.084C88.9489 99.7427 88.5005 99.5073 87.9907 99.3778C87.49 99.2562 87.0006 99.2487 86.5227 99.3553C86.0448 99.4618 85.6471 99.6951 85.3297 100.055L81.8655 103.984C81.7703 104.092 81.6464 104.151 81.494 104.16C81.3416 104.17 81.2114 104.127 81.1033 104.032C80.9773 103.921 80.914 103.793 80.9135 103.649C80.9129 103.504 80.9602 103.378 81.0554 103.27L86.3886 97.2212C86.4838 97.1132 86.6031 97.0504 86.7466 97.0329C86.899 97.0233 87.0337 97.0701 87.1507 97.1733C87.2678 97.2765 87.3266 97.4003 87.3271 97.5448C87.3367 97.6972 87.2939 97.8275 87.1987 97.9355L86.1987 99.0696L85.4596 99.2818C85.7316 99.0097 86.0636 98.8145 86.4558 98.6963C86.8649 98.5771 87.2912 98.529 87.7348 98.5522C88.1863 98.5663 88.6211 98.6537 89.0393 98.8145C89.4745 98.9742 89.8541 99.1969 90.1781 99.4826ZM99.7721 108.014C99.8891 108.117 99.9479 108.241 99.9485 108.385C99.9581 108.538 99.9153 108.668 99.82 108.776L94.5702 114.73C93.9274 115.459 93.2437 115.944 92.5192 116.185C91.7867 116.435 91.0664 116.472 90.3581 116.296C89.6419 116.128 88.9733 115.771 88.3522 115.223C87.9652 114.882 87.6448 114.519 87.3911 114.136C87.1385 113.769 86.9682 113.427 86.8803 113.109C86.8278 112.951 86.8143 112.803 86.8396 112.665C86.865 112.528 86.9438 112.429 87.0761 112.37C87.2322 112.284 87.3751 112.258 87.5048 112.292C87.6356 112.343 87.7306 112.435 87.7899 112.567C87.8715 112.783 88.0048 113.077 88.1896 113.448C88.3745 113.819 88.6514 114.167 89.0205 114.492C89.5155 114.929 90.0343 115.202 90.5769 115.313C91.1285 115.431 91.6778 115.379 92.2251 115.158C92.7643 114.946 93.2721 114.569 93.7482 114.029L94.6053 113.057L94.4142 113.465C94.0331 113.625 93.6214 113.701 93.1789 113.695C92.7454 113.697 92.311 113.618 91.8759 113.458C91.4577 113.298 91.0686 113.058 90.7085 112.741C90.1685 112.265 89.8137 111.76 89.6441 111.227C89.4915 110.692 89.5003 110.156 89.6705 109.618C89.8408 109.08 90.156 108.55 90.6163 108.028L94.271 103.883C94.3662 103.775 94.4855 103.712 94.629 103.695C94.7724 103.677 94.9071 103.724 95.0331 103.835C95.1502 103.939 95.209 104.062 95.2095 104.207C95.2191 104.359 95.1763 104.49 95.0811 104.598L91.5336 108.621C90.978 109.251 90.6845 109.856 90.6529 110.436C90.6304 111.024 90.9296 111.592 91.5507 112.14C91.9377 112.481 92.3726 112.704 92.8554 112.81C93.3461 112.907 93.8259 112.898 94.2948 112.783C94.7717 112.66 95.1609 112.427 95.4625 112.085L99.01 108.062C99.1052 107.954 99.2245 107.891 99.368 107.873C99.5204 107.864 99.6551 107.911 99.7721 108.014Z" fill="#121212"/>
<rect x="111.779" y="159.29" width="121.322" height="48" rx="24" transform="rotate(0.92934 111.779 159.29)" fill="#704FE6"/>
<path d="M142.014 190.784C141.834 190.781 141.692 190.707 141.586 190.561C141.492 190.416 141.459 190.241 141.486 190.037L143.633 178.677C143.671 178.533 143.739 178.42 143.836 178.338C143.934 178.256 144.048 178.215 144.18 178.218C144.372 178.221 144.515 178.295 144.609 178.441C144.715 178.574 144.748 178.743 144.709 178.946L142.562 190.325C142.548 190.469 142.486 190.582 142.376 190.664C142.279 190.746 142.158 190.786 142.014 190.784ZM141.303 182.455C141.135 182.453 140.992 182.396 140.874 182.286C140.768 182.165 140.716 182.02 140.719 181.852C140.722 181.696 140.778 181.571 140.887 181.477C141.009 181.383 141.153 181.337 141.321 181.34L150.356 181.486C150.524 181.489 150.661 181.551 150.767 181.673C150.874 181.783 150.925 181.921 150.923 182.089C150.92 182.245 150.864 182.371 150.754 182.465C150.645 182.559 150.506 182.605 150.338 182.602L141.303 182.455ZM146.676 190.86C146.484 190.857 146.335 190.782 146.229 190.636C146.136 190.491 146.108 190.316 146.148 190.113L148.294 178.752C148.321 178.609 148.382 178.496 148.48 178.413C148.577 178.331 148.698 178.291 148.842 178.293C149.034 178.296 149.177 178.371 149.27 178.516C149.376 178.65 149.409 178.818 149.37 179.022L147.223 190.401C147.197 190.544 147.135 190.657 147.038 190.74C146.94 190.822 146.82 190.862 146.676 190.86ZM140.501 187.501C140.345 187.499 140.208 187.442 140.09 187.332C139.984 187.211 139.932 187.072 139.935 186.916C139.937 186.76 139.993 186.635 140.103 186.541C140.224 186.446 140.363 186.401 140.519 186.403L149.572 186.55C149.74 186.553 149.877 186.609 149.983 186.719C150.09 186.829 150.141 186.967 150.139 187.135C150.136 187.291 150.08 187.416 149.97 187.511C149.861 187.605 149.722 187.651 149.554 187.648L140.501 187.501ZM156.982 181.756C157.738 181.768 158.347 181.94 158.81 182.271C159.273 182.603 159.607 183.046 159.815 183.602C160.034 184.157 160.138 184.771 160.127 185.443L160.044 190.536C160.042 190.68 159.986 190.806 159.876 190.912C159.766 191.018 159.639 191.07 159.495 191.068C159.327 191.065 159.196 191.009 159.102 190.899C159.008 190.79 158.962 190.663 158.964 190.519L159.047 185.426C159.055 184.934 158.984 184.488 158.834 184.09C158.697 183.692 158.462 183.376 158.13 183.142C157.798 182.897 157.35 182.77 156.786 182.761C156.282 182.752 155.8 182.865 155.34 183.097C154.892 183.318 154.527 183.624 154.245 184.016C153.963 184.407 153.818 184.849 153.81 185.341L153.727 190.434C153.725 190.578 153.669 190.703 153.559 190.809C153.449 190.916 153.322 190.968 153.178 190.965C153.01 190.962 152.879 190.906 152.785 190.797C152.691 190.687 152.645 190.56 152.647 190.416L152.846 178.178C152.848 178.034 152.898 177.909 152.996 177.802C153.105 177.696 153.238 177.644 153.394 177.647C153.55 177.649 153.675 177.705 153.77 177.815C153.876 177.925 153.928 178.052 153.925 178.196L153.831 184.027L153.407 184.65C153.437 184.278 153.557 183.92 153.766 183.576C153.988 183.219 154.269 182.906 154.61 182.635C154.95 182.353 155.326 182.137 155.736 181.987C156.147 181.826 156.562 181.749 156.982 181.756ZM170.558 182.048C170.714 182.05 170.839 182.106 170.933 182.216C171.039 182.326 171.091 182.459 171.088 182.615L170.957 190.713C170.955 190.857 170.899 190.983 170.789 191.089C170.679 191.195 170.552 191.247 170.408 191.245C170.252 191.242 170.121 191.186 170.015 191.076C169.921 190.967 169.875 190.84 169.877 190.696L169.912 188.554L170.22 188.415C170.215 188.751 170.113 189.092 169.916 189.436C169.73 189.781 169.473 190.101 169.144 190.396C168.815 190.691 168.427 190.93 167.98 191.115C167.545 191.288 167.076 191.371 166.572 191.362C165.756 191.349 165.028 191.127 164.387 190.697C163.757 190.267 163.263 189.683 162.903 188.945C162.555 188.207 162.388 187.382 162.403 186.47C162.418 185.534 162.617 184.715 163.001 184.014C163.384 183.3 163.897 182.744 164.54 182.346C165.183 181.949 165.906 181.756 166.71 181.769C167.226 181.778 167.704 181.876 168.145 182.063C168.598 182.25 168.99 182.503 169.321 182.82C169.652 183.137 169.904 183.501 170.077 183.912C170.263 184.311 170.352 184.727 170.345 185.159L169.972 184.883L170.009 182.597C170.011 182.441 170.061 182.31 170.159 182.203C170.269 182.097 170.402 182.045 170.558 182.048ZM166.678 190.356C167.314 190.366 167.881 190.214 168.378 189.898C168.875 189.57 169.267 189.12 169.552 188.548C169.85 187.965 170.004 187.314 170.016 186.594C170.027 185.886 169.894 185.248 169.615 184.679C169.348 184.111 168.971 183.654 168.485 183.31C167.998 182.966 167.437 182.789 166.801 182.779C166.177 182.769 165.611 182.922 165.102 183.238C164.604 183.554 164.207 183.991 163.91 184.55C163.625 185.11 163.477 185.756 163.465 186.487C163.453 187.207 163.58 187.863 163.847 188.456C164.125 189.036 164.508 189.499 164.994 189.843C165.481 190.175 166.042 190.346 166.678 190.356ZM178.306 182.102C179.122 182.115 179.838 182.33 180.456 182.749C181.085 183.155 181.58 183.715 181.94 184.429C182.301 185.131 182.474 185.938 182.459 186.85C182.445 187.761 182.245 188.568 181.862 189.27C181.479 189.972 180.966 190.522 180.323 190.919C179.68 191.317 178.963 191.509 178.171 191.497C177.751 191.49 177.35 191.423 176.968 191.297C176.599 191.159 176.259 190.98 175.951 190.759C175.643 190.537 175.371 190.281 175.135 189.989C174.9 189.685 174.714 189.358 174.575 189.008L174.903 188.779L174.812 194.377C174.81 194.52 174.754 194.646 174.644 194.752C174.546 194.858 174.42 194.91 174.264 194.908C174.108 194.905 173.976 194.849 173.87 194.739C173.776 194.63 173.73 194.503 173.732 194.359L173.923 182.625C173.925 182.469 173.975 182.337 174.073 182.231C174.171 182.124 174.304 182.073 174.472 182.075C174.628 182.078 174.753 182.134 174.847 182.243C174.953 182.353 175.005 182.486 175.003 182.642L174.971 184.586L174.721 184.438C174.847 184.068 175.027 183.741 175.259 183.456C175.504 183.16 175.784 182.913 176.1 182.714C176.415 182.503 176.76 182.347 177.133 182.245C177.507 182.143 177.898 182.095 178.306 182.102ZM178.199 183.108C177.552 183.097 176.979 183.25 176.482 183.566C175.985 183.87 175.588 184.296 175.291 184.843C175.006 185.378 174.858 186.006 174.846 186.726C174.835 187.434 174.962 188.072 175.229 188.641C175.508 189.209 175.891 189.659 176.378 189.991C176.864 190.311 177.432 190.476 178.08 190.487C178.716 190.497 179.276 190.35 179.761 190.046C180.258 189.73 180.655 189.293 180.953 188.733C181.25 188.174 181.404 187.541 181.415 186.833C181.427 186.125 181.293 185.492 181.014 184.936C180.735 184.379 180.352 183.941 179.865 183.621C179.391 183.289 178.835 183.118 178.199 183.108ZM189.22 182.279C190.036 182.292 190.753 182.507 191.37 182.926C192 183.332 192.495 183.892 192.855 184.606C193.216 185.308 193.389 186.115 193.374 187.027C193.359 187.938 193.16 188.745 192.777 189.447C192.393 190.149 191.88 190.699 191.238 191.096C190.595 191.494 189.878 191.687 189.086 191.674C188.666 191.667 188.265 191.6 187.883 191.474C187.513 191.336 187.174 191.157 186.866 190.936C186.557 190.715 186.285 190.458 186.05 190.166C185.815 189.862 185.628 189.535 185.49 189.185L185.818 188.956L185.727 194.554C185.724 194.698 185.668 194.823 185.559 194.929C185.461 195.035 185.334 195.087 185.178 195.085C185.022 195.082 184.891 195.026 184.785 194.916C184.691 194.807 184.645 194.68 184.647 194.536L184.837 182.802C184.84 182.646 184.89 182.514 184.988 182.408C185.085 182.302 185.218 182.25 185.386 182.252C185.542 182.255 185.667 182.311 185.762 182.421C185.868 182.53 185.92 182.663 185.917 182.819L185.886 184.763L185.636 184.615C185.762 184.245 185.941 183.918 186.174 183.633C186.419 183.337 186.699 183.09 187.014 182.891C187.33 182.68 187.674 182.524 188.048 182.422C188.422 182.32 188.812 182.272 189.22 182.279ZM189.114 183.285C188.466 183.275 187.894 183.427 187.396 183.743C186.899 184.047 186.502 184.473 186.205 185.02C185.921 185.556 185.773 186.183 185.761 186.903C185.749 187.611 185.877 188.249 186.144 188.818C186.423 189.386 186.805 189.836 187.292 190.168C187.779 190.488 188.346 190.654 188.994 190.664C189.63 190.674 190.191 190.527 190.676 190.223C191.173 189.907 191.57 189.47 191.867 188.91C192.164 188.351 192.319 187.718 192.33 187.01C192.342 186.302 192.208 185.67 191.929 185.113C191.65 184.556 191.267 184.118 190.78 183.798C190.305 183.466 189.75 183.295 189.114 183.285ZM202.62 182.406C202.776 182.408 202.901 182.465 202.995 182.574C203.102 182.684 203.154 182.811 203.151 182.955L203.022 190.892C203.007 191.863 202.802 192.676 202.407 193.33C202.012 193.996 201.488 194.491 200.835 194.817C200.181 195.154 199.44 195.316 198.612 195.303C198.096 195.294 197.617 195.227 197.175 195.099C196.745 194.984 196.394 194.835 196.121 194.65C195.978 194.564 195.872 194.46 195.802 194.339C195.732 194.218 195.728 194.092 195.79 193.961C195.852 193.794 195.944 193.681 196.065 193.623C196.198 193.577 196.33 193.585 196.461 193.648C196.663 193.759 196.955 193.896 197.336 194.058C197.718 194.22 198.154 194.305 198.646 194.313C199.306 194.324 199.878 194.195 200.363 193.927C200.859 193.659 201.244 193.263 201.516 192.739C201.789 192.228 201.931 191.612 201.942 190.892L201.963 189.596L202.082 190.03C201.896 190.399 201.633 190.725 201.292 191.008C200.964 191.29 200.582 191.512 200.147 191.673C199.725 191.822 199.274 191.893 198.794 191.885C198.074 191.873 197.476 191.72 197.001 191.424C196.538 191.116 196.197 190.703 195.977 190.183C195.757 189.664 195.653 189.056 195.665 188.36L195.754 182.835C195.757 182.691 195.807 182.565 195.904 182.459C196.002 182.353 196.135 182.301 196.303 182.303C196.459 182.306 196.584 182.362 196.678 182.472C196.784 182.581 196.836 182.708 196.834 182.852L196.747 188.215C196.733 189.055 196.903 189.706 197.255 190.168C197.62 190.63 198.216 190.868 199.044 190.881C199.56 190.889 200.036 190.777 200.472 190.544C200.908 190.299 201.267 189.981 201.549 189.59C201.832 189.186 201.977 188.756 201.984 188.3L202.071 182.937C202.074 182.793 202.124 182.668 202.221 182.562C202.331 182.455 202.464 182.403 202.62 182.406Z" fill="white"/>
</svg>
