<svg width="127" height="128" viewBox="0 0 127 128" fill="none" xmlns="http://www.w3.org/2000/svg">
<path d="M127 63.8469C127 67.8987 121.387 71.3859 120.623 75.2052C119.826 79.1573 123.679 84.5043 122.184 88.1576C120.657 91.8773 114.147 92.9068 111.922 96.1947C109.697 99.5159 111.191 105.926 108.402 108.749C105.579 111.572 99.1689 110.044 95.8478 112.269C92.5599 114.461 91.4971 120.97 87.8107 122.531C84.1574 124.026 78.8436 120.206 74.8583 120.97C71.0058 121.734 67.5518 127.347 63.5 127.347C59.4482 127.347 55.961 121.734 52.1417 120.97C48.1896 120.173 42.8426 124.026 39.1893 122.531C35.4697 121.004 34.4401 114.494 31.1522 112.269C27.8311 110.044 21.4213 111.538 18.5983 108.749C15.7754 105.926 17.3031 99.5159 15.0779 96.1947C12.886 92.9068 6.37657 91.844 4.81564 88.1576C3.32113 84.5043 7.14043 79.1905 6.37657 75.2052C5.61271 71.3527 0 67.8987 0 63.8469C0 59.7951 5.61271 56.3079 6.37657 52.4887C7.17364 48.5365 3.32113 43.1895 4.81564 39.5363C6.34336 35.8166 12.8528 34.787 15.0779 31.4991C17.3031 28.178 15.8086 21.7682 18.5983 18.9452C21.4213 16.1223 27.8311 17.65 31.1522 15.4249C34.4401 13.2329 35.5029 6.72349 39.1893 5.16256C42.8426 3.66805 48.1564 7.48735 52.1417 6.72349C55.9942 5.95963 59.4482 0.346924 63.5 0.346924C67.5518 0.346924 71.039 5.95963 74.8583 6.72349C78.8104 7.52056 84.1574 3.66805 87.8107 5.16256C91.5303 6.69028 92.5599 13.1997 95.8478 15.4249C99.1689 17.65 105.579 16.1555 108.402 18.9452C111.225 21.7682 109.697 28.178 111.922 31.4991C114.114 34.787 120.623 35.8498 122.184 39.5363C123.679 43.1895 119.86 48.5033 120.623 52.4887C121.387 56.3412 127 59.7951 127 63.8469Z" fill="white" fill-opacity="0.7"/>
<path d="M70.9951 48.0137C75.2798 48.0116 79.3938 49.6933 82.4502 52.6962C85.5065 55.6992 87.2605 59.7829 87.334 64.067C87.4074 68.3511 85.7945 72.4925 82.8429 75.5985C79.8913 78.7044 75.8374 80.5262 71.5551 80.671L70.9951 80.6803H57.0044C52.7196 80.6824 48.6057 79.0007 45.5493 75.9978C42.4929 72.9949 40.739 68.9112 40.6655 64.627C40.592 60.3429 42.205 56.2015 45.1566 53.0955C48.1082 49.9896 52.1621 48.1678 56.4444 48.023L57.0021 48.0137H70.9927H70.9951ZM70.4164 65.5137C69.6428 65.5137 68.901 65.821 68.354 66.3679C67.807 66.9149 67.4997 67.6568 67.4997 68.4303C67.4997 69.2039 67.807 69.9458 68.354 70.4927C68.901 71.0397 69.6428 71.347 70.4164 71.347C71.1899 71.347 71.9318 71.0397 72.4788 70.4927C73.0258 69.9458 73.3331 69.2039 73.3331 68.4303C73.3331 67.6568 73.0258 66.9149 72.4788 66.3679C71.9318 65.821 71.1899 65.5137 70.4164 65.5137ZM54.6664 57.347C54.2435 57.347 53.8349 57.5002 53.5162 57.7781C53.1975 58.0561 52.9902 58.44 52.9327 58.859L52.9164 59.097V62.5923H49.4164C48.9698 62.5878 48.5385 62.7541 48.2106 63.0573C47.8827 63.3605 47.6831 63.7775 47.6527 64.2231C47.6222 64.6686 47.7633 65.1089 48.0469 65.4538C48.3306 65.7987 48.7354 66.0221 49.1784 66.0783L49.4164 66.0947L52.9164 66.0923V69.597C52.9165 70.0404 53.085 70.4672 53.3877 70.7912C53.6904 71.1152 54.1048 71.3122 54.5471 71.3424C54.9895 71.3726 55.4268 71.2338 55.7708 70.954C56.1147 70.6742 56.3396 70.2743 56.4001 69.835L56.4164 69.597V66.0923H59.9164C60.357 66.0882 60.7799 65.918 61.1005 65.6157C61.4211 65.3135 61.6159 64.9014 61.6459 64.4618C61.676 64.0222 61.5391 63.5874 61.2626 63.2443C60.9861 62.9012 60.5903 62.6751 60.1544 62.611L59.9164 62.5947L56.4164 62.5923V59.097C56.4164 58.6329 56.232 58.1878 55.9038 57.8596C55.5756 57.5314 55.1305 57.347 54.6664 57.347ZM75.0831 57.347C74.3095 57.347 73.5676 57.6543 73.0207 58.2013C72.4737 58.7483 72.1664 59.4901 72.1664 60.2637C72.1664 61.0372 72.4737 61.7791 73.0207 62.3261C73.5676 62.8731 74.3095 63.1803 75.0831 63.1803C75.8566 63.1803 76.5985 62.8731 77.1455 62.3261C77.6924 61.7791 77.9997 61.0372 77.9997 60.2637C77.9997 59.4901 77.6924 58.7483 77.1455 58.2013C76.5985 57.6543 75.8566 57.347 75.0831 57.347Z" fill="#121212"/>
<path d="M90.4007 33.7476L87 30.3469" stroke="#19223F" stroke-width="2.17224" stroke-miterlimit="10" stroke-linecap="round"/>
<path d="M98.0862 41.4329L94.6855 38.0322" stroke="#19223F" stroke-width="2.17224" stroke-miterlimit="10" stroke-linecap="round"/>
<path d="M90.4007 38.0322L87 41.4329" stroke="#19223F" stroke-width="2.17224" stroke-miterlimit="10" stroke-linecap="round"/>
<path d="M98.0862 30.3469L94.6855 33.7476" stroke="#19223F" stroke-width="2.17224" stroke-miterlimit="10" stroke-linecap="round"/>
<path d="M30.8753 85.7213L27.501 82.3469" stroke="#19223F" stroke-width="2.15541" stroke-miterlimit="10" stroke-linecap="round"/>
<path d="M38.5013 93.347L35.127 89.9727" stroke="#19223F" stroke-width="2.15541" stroke-miterlimit="10" stroke-linecap="round"/>
<path d="M30.8753 89.9727L27.501 93.347" stroke="#19223F" stroke-width="2.15541" stroke-miterlimit="10" stroke-linecap="round"/>
<path d="M38.5013 82.3469L35.127 85.7213" stroke="#19223F" stroke-width="2.15541" stroke-miterlimit="10" stroke-linecap="round"/>
</svg>
