<svg width="91" height="89" viewBox="0 0 91 89" fill="none" xmlns="http://www.w3.org/2000/svg">
<g opacity="0.3">
<path d="M45.5006 23.6406C45.5006 35.1609 36.1465 44.5 24.6077 44.5H3.71484V23.6406C3.71484 12.1203 13.0689 2.78125 24.6077 2.78125C36.1465 2.78125 45.5006 12.1203 45.5006 23.6406Z" fill="white"/>
<path d="M45.501 65.3594C45.501 53.8391 54.855 44.5 66.3938 44.5H87.2867V65.3594C87.2867 76.8797 77.9326 86.2188 66.3938 86.2188C54.855 86.2188 45.501 76.8797 45.501 65.3594Z" fill="white"/>
<path d="M3.71484 65.3594C3.71484 76.8797 13.0689 86.2188 24.6077 86.2188H45.5006V65.3594C45.5006 53.8391 36.1465 44.5 24.6077 44.5C13.0689 44.5 3.71484 53.8391 3.71484 65.3594Z" fill="white"/>
<path d="M87.2867 23.6406C87.2867 12.1203 77.9326 2.78125 66.3938 2.78125H45.501V23.6406C45.501 35.1609 54.855 44.5 66.3938 44.5C77.9326 44.5 87.2867 35.1609 87.2867 23.6406Z" fill="white"/>
</g>
</svg>
