<svg width="127" height="128" viewBox="0 0 127 128" fill="none" xmlns="http://www.w3.org/2000/svg">
  <path d="M127 63.8469C127 67.8987 121.387 71.3859 120.623 75.2052C119.826 79.1573 123.679 84.5043 122.184 88.1576C120.657 91.8773 114.147 92.9068 111.922 96.1947C109.697 99.5159 111.191 105.926 108.402 108.749C105.579 111.572 99.1689 110.044 95.8478 112.269C92.5599 114.461 91.4971 120.97 87.8107 122.531C84.1574 124.026 78.8436 120.206 74.8583 120.97C71.0058 121.734 67.5518 127.347 63.5 127.347C59.4482 127.347 55.961 121.734 52.1417 120.97C48.1896 120.173 42.8426 124.026 39.1893 122.531C35.4697 121.004 34.4401 114.494 31.1522 112.269C27.8311 110.044 21.4213 111.538 18.5983 108.749C15.7754 105.926 17.3031 99.5159 15.0779 96.1947C12.886 92.9068 6.37657 91.844 4.81564 88.1576C3.32113 84.5043 7.14043 79.1905 6.37657 75.2052C5.61271 71.3527 0 67.8987 0 63.8469C0 59.7951 5.61271 56.3079 6.37657 52.4887C7.17364 48.5365 3.32113 43.1895 4.81564 39.5363C6.34336 35.8166 12.8528 34.787 15.0779 31.4991C17.3031 28.178 15.8086 21.7682 18.5983 18.9452C21.4213 16.1223 27.8311 17.65 31.1522 15.4249C34.4401 13.2329 35.5029 6.72349 39.1893 5.16256C42.8426 3.66805 48.1564 7.48735 52.1417 6.72349C55.9942 5.95963 59.4482 0.346924 63.5 0.346924C67.5518 0.346924 71.039 5.95963 74.8583 6.72349C78.8104 7.52056 84.1574 3.66805 87.8107 5.16256C91.5303 6.69028 92.5599 13.1997 95.8478 15.4249C99.1689 17.65 105.579 16.1555 108.402 18.9452C111.225 21.7682 109.697 28.178 111.922 31.4991C114.114 34.787 120.623 35.8498 122.184 39.5363C123.679 43.1895 119.86 48.5033 120.623 52.4887C121.387 56.3412 127 59.7951 127 63.8469Z" fill="white" fill-opacity="0.2"/>
  <g transform="translate(45.5,44)">
    <path d="M16.9232 -0.00012207V6.3473H19.0791V-0.00012207H16.923H16.9232ZM8.11952 1.90737L6.35312 3.14414L9.99322 8.34232L11.7586 7.10553L8.11952 1.90737ZM27.8824 1.90737L24.2433 7.10556L26.009 8.34236L29.6491 3.14414L27.8827 1.90737H27.8824ZM18.0007 8.08399C12.7265 8.08399 8.45095 11.2867 8.45095 15.2381L13.8767 31.6697H22.1257L27.5509 15.2381C27.5509 11.2868 23.2757 8.08399 18.0012 8.08399H18.0007ZM0.849914 9.98895L0.113281 12.0161L6.07491 14.1865L6.81428 12.1604L0.849781 9.98895H0.849914ZM35.152 9.98895L29.1874 12.1605L29.9243 14.1869L35.8889 12.0161L35.152 9.98895ZM6.52628 19.2559L0.396281 20.9001L0.952481 22.9811L7.08248 21.3393L6.52638 19.2559H6.52628ZM29.4756 19.2559L28.9198 21.3392L35.0498 22.9808L35.6056 20.8997L29.4756 19.2558V19.2559ZM13.7564 32.8675V35.7237H22.246V32.868H13.7564L13.7564 32.8675ZM13.7564 37.1436V39.9998H22.246V37.1441H13.7564L13.7564 37.1436Z" fill="white"/>
  </g>
  <g transform="translate(127,0) scale(-1,1)">
    <path d="M90.4007 33.7476L87 30.3469" stroke="white" stroke-width="2.17224" stroke-miterlimit="10" stroke-linecap="round"/>
    <path d="M98.0862 41.4329L94.6855 38.0322" stroke="white" stroke-width="2.17224" stroke-miterlimit="10" stroke-linecap="round"/>
    <path d="M90.4007 38.0322L87 41.4329" stroke="white" stroke-width="2.17224" stroke-miterlimit="10" stroke-linecap="round"/>
    <path d="M98.0862 30.3469L94.6855 33.7476" stroke="white" stroke-width="2.17224" stroke-miterlimit="10" stroke-linecap="round"/>
    <path d="M30.8753 85.7213L27.501 82.3469" stroke="white" stroke-width="2.15541" stroke-miterlimit="10" stroke-linecap="round"/>
    <path d="M38.5013 93.347L35.127 89.9727" stroke="white" stroke-width="2.15541" stroke-miterlimit="10" stroke-linecap="round"/>
    <path d="M30.8753 89.9727L27.501 93.347" stroke="white" stroke-width="2.15541" stroke-miterlimit="10" stroke-linecap="round"/>
    <path d="M38.5013 82.3469L35.127 85.7213" stroke="white" stroke-width="2.15541" stroke-miterlimit="10" stroke-linecap="round"/>
  </g>
</svg>
