<svg width="137" height="130" viewBox="0 0 137 130" fill="none" xmlns="http://www.w3.org/2000/svg">
<path d="M123.327 0.710449C117.86 0.710449 113.139 9.50096 110.951 22.2092C108.485 15.6145 105.114 11.5463 101.396 11.5463C95.9286 11.5463 91.2077 20.3368 89.0206 33.045C86.5545 26.4503 83.1834 22.3821 79.4654 22.3821C73.9978 22.3821 69.2768 31.1727 67.0897 43.8809C64.6236 37.2861 61.2526 33.218 57.5346 33.218C52.067 33.218 47.3459 42.0085 45.1589 54.7167C42.6928 48.122 39.3217 44.0539 35.6037 44.0539C30.1361 44.0539 25.4151 52.8443 23.228 65.5526C20.7619 58.9578 17.3909 54.8897 13.6729 54.8897C6.12377 54.8897 0 71.636 0 92.3001C0 112.964 6.12377 129.71 13.6729 129.71C19.1405 129.71 23.8615 120.92 26.0486 108.212C28.5147 114.806 31.8857 118.875 35.6037 118.875C41.0713 118.875 45.7924 110.084 47.9794 97.3759C50.4455 103.971 53.8166 108.039 57.5346 108.039C63.0022 108.039 67.7232 99.2483 69.9103 86.54C72.3764 93.1348 75.7474 97.2029 79.4654 97.2029C84.9331 97.2029 89.6541 88.4124 91.8411 75.7042C94.3072 82.2989 97.6783 86.3671 101.396 86.3671C106.864 86.3671 111.585 77.5765 113.772 64.8683C116.238 71.4631 119.609 75.5312 123.327 75.5312C130.876 75.5312 137 58.7849 137 38.1208C137 17.4568 130.884 0.710449 123.327 0.710449Z" fill="#DEC8FE"/>
</svg>
