<svg width="67" height="67" viewBox="0 0 67 67" fill="none" xmlns="http://www.w3.org/2000/svg">
<path d="M2.77894 6.26831C4.31368 6.26831 5.55777 5.02415 5.55777 3.48941C5.55777 1.95467 4.31368 0.71051 2.77894 0.71051C1.2442 0.71051 0 1.95467 0 3.48941C0 5.02415 1.2442 6.26831 2.77894 6.26831Z" fill="#DEC8FE"/>
<path d="M14.9273 6.26831C16.462 6.26831 17.7062 5.02415 17.7062 3.48941C17.7062 1.95467 16.462 0.71051 14.9273 0.71051C13.3925 0.71051 12.1484 1.95467 12.1484 3.48941C12.1484 5.02415 13.3925 6.26831 14.9273 6.26831Z" fill="#DEC8FE"/>
<path d="M27.0719 6.26831C28.6067 6.26831 29.8507 5.02415 29.8507 3.48941C29.8507 1.95467 28.6067 0.71051 27.0719 0.71051C25.5372 0.71051 24.293 1.95467 24.293 3.48941C24.293 5.02415 25.5372 6.26831 27.0719 6.26831Z" fill="#DEC8FE"/>
<path d="M39.2415 6.26824C40.7762 6.26824 42.0204 5.02409 42.0204 3.48935C42.0204 1.9546 40.7762 0.710449 39.2415 0.710449C37.7067 0.710449 36.4626 1.9546 36.4626 3.48935C36.4626 5.02409 37.7067 6.26824 39.2415 6.26824Z" fill="#DEC8FE"/>
<path d="M51.3883 6.26831C52.9231 6.26831 54.1671 5.02415 54.1671 3.48941C54.1671 1.95467 52.9231 0.71051 51.3883 0.71051C49.8536 0.71051 48.6094 1.95467 48.6094 3.48941C48.6094 5.02415 49.8536 6.26831 51.3883 6.26831Z" fill="#DEC8FE"/>
<path d="M63.5562 6.26831C65.0909 6.26831 66.3351 5.02415 66.3351 3.48941C66.3351 1.95467 65.0909 0.71051 63.5562 0.71051C62.0214 0.71051 60.7773 1.95467 60.7773 3.48941C60.7773 5.02415 62.0214 6.26831 63.5562 6.26831Z" fill="#DEC8FE"/>
<path d="M2.77918 16.278C4.31393 16.278 5.55802 15.0339 5.55802 13.4991C5.55802 11.9644 4.31393 10.7202 2.77918 10.7202C1.24444 10.7202 0.000244141 11.9644 0.000244141 13.4991C0.000244141 15.0339 1.24444 16.278 2.77918 16.278Z" fill="#DEC8FE"/>
<path d="M14.9275 16.278C16.4623 16.278 17.7065 15.0339 17.7065 13.4991C17.7065 11.9644 16.4623 10.7202 14.9275 10.7202C13.3928 10.7202 12.1487 11.9644 12.1487 13.4991C12.1487 15.0339 13.3928 16.278 14.9275 16.278Z" fill="#DEC8FE"/>
<path d="M27.0722 16.278C28.6069 16.278 29.851 15.0339 29.851 13.4991C29.851 11.9644 28.6069 10.7202 27.0722 10.7202C25.5374 10.7202 24.2932 11.9644 24.2932 13.4991C24.2932 15.0339 25.5374 16.278 27.0722 16.278Z" fill="#DEC8FE"/>
<path d="M39.2417 16.278C40.7765 16.278 42.0207 15.0339 42.0207 13.4991C42.0207 11.9644 40.7765 10.7202 39.2417 10.7202C37.707 10.7202 36.4629 11.9644 36.4629 13.4991C36.4629 15.0339 37.707 16.278 39.2417 16.278Z" fill="#DEC8FE"/>
<path d="M51.3886 16.278C52.9233 16.278 54.1674 15.0339 54.1674 13.4991C54.1674 11.9644 52.9233 10.7202 51.3886 10.7202C49.8538 10.7202 48.6096 11.9644 48.6096 13.4991C48.6096 15.0339 49.8538 16.278 51.3886 16.278Z" fill="#DEC8FE"/>
<path d="M63.5564 16.278C65.0912 16.278 66.3354 15.0339 66.3354 13.4991C66.3354 11.9644 65.0912 10.7202 63.5564 10.7202C62.0217 10.7202 60.7776 11.9644 60.7776 13.4991C60.7776 15.0339 62.0217 16.278 63.5564 16.278Z" fill="#DEC8FE"/>
<path d="M2.77918 26.2879C4.31393 26.2879 5.55802 25.0437 5.55802 23.509C5.55802 21.9742 4.31393 20.7301 2.77918 20.7301C1.24444 20.7301 0.000244141 21.9742 0.000244141 23.509C0.000244141 25.0437 1.24444 26.2879 2.77918 26.2879Z" fill="#DEC8FE"/>
<path d="M14.9275 26.2881C16.4623 26.2881 17.7065 25.044 17.7065 23.5092C17.7065 21.9745 16.4623 20.7303 14.9275 20.7303C13.3928 20.7303 12.1487 21.9745 12.1487 23.5092C12.1487 25.044 13.3928 26.2881 14.9275 26.2881Z" fill="#DEC8FE"/>
<path d="M27.0722 26.2879C28.6069 26.2879 29.851 25.0437 29.851 23.509C29.851 21.9742 28.6069 20.7301 27.0722 20.7301C25.5374 20.7301 24.2932 21.9742 24.2932 23.509C24.2932 25.0437 25.5374 26.2879 27.0722 26.2879Z" fill="#DEC8FE"/>
<path d="M39.2417 26.2881C40.7765 26.2881 42.0207 25.0439 42.0207 23.5092C42.0207 21.9744 40.7765 20.7303 39.2417 20.7303C37.707 20.7303 36.4629 21.9744 36.4629 23.5092C36.4629 25.0439 37.707 26.2881 39.2417 26.2881Z" fill="#DEC8FE"/>
<path d="M51.3886 26.2881C52.9233 26.2881 54.1674 25.044 54.1674 23.5092C54.1674 21.9745 52.9233 20.7303 51.3886 20.7303C49.8538 20.7303 48.6096 21.9745 48.6096 23.5092C48.6096 25.044 49.8538 26.2881 51.3886 26.2881Z" fill="#DEC8FE"/>
<path d="M63.5564 26.2881C65.0912 26.2881 66.3354 25.044 66.3354 23.5092C66.3354 21.9745 65.0912 20.7303 63.5564 20.7303C62.0217 20.7303 60.7776 21.9745 60.7776 23.5092C60.7776 25.044 62.0217 26.2881 63.5564 26.2881Z" fill="#DEC8FE"/>
<path d="M2.77918 36.2978C4.31393 36.2978 5.55802 35.0537 5.55802 33.5189C5.55802 31.9842 4.31393 30.74 2.77918 30.74C1.24444 30.74 0.000244141 31.9842 0.000244141 33.5189C0.000244141 35.0537 1.24444 36.2978 2.77918 36.2978Z" fill="#DEC8FE"/>
<path d="M14.9275 36.2977C16.4623 36.2977 17.7065 35.0535 17.7065 33.5188C17.7065 31.9841 16.4623 30.7399 14.9275 30.7399C13.3928 30.7399 12.1487 31.9841 12.1487 33.5188C12.1487 35.0535 13.3928 36.2977 14.9275 36.2977Z" fill="#DEC8FE"/>
<path d="M27.0722 36.2978C28.6069 36.2978 29.851 35.0537 29.851 33.5189C29.851 31.9842 28.6069 30.74 27.0722 30.74C25.5374 30.74 24.2932 31.9842 24.2932 33.5189C24.2932 35.0537 25.5374 36.2978 27.0722 36.2978Z" fill="#DEC8FE"/>
<path d="M39.2417 36.2977C40.7765 36.2977 42.0207 35.0536 42.0207 33.5188C42.0207 31.9841 40.7765 30.7399 39.2417 30.7399C37.707 30.7399 36.4629 31.9841 36.4629 33.5188C36.4629 35.0536 37.707 36.2977 39.2417 36.2977Z" fill="#DEC8FE"/>
<path d="M51.3886 36.2977C52.9233 36.2977 54.1674 35.0535 54.1674 33.5188C54.1674 31.9841 52.9233 30.7399 51.3886 30.7399C49.8538 30.7399 48.6096 31.9841 48.6096 33.5188C48.6096 35.0535 49.8538 36.2977 51.3886 36.2977Z" fill="#DEC8FE"/>
<path d="M63.5564 36.2977C65.0912 36.2977 66.3354 35.0535 66.3354 33.5188C66.3354 31.9841 65.0912 30.7399 63.5564 30.7399C62.0217 30.7399 60.7776 31.9841 60.7776 33.5188C60.7776 35.0535 62.0217 36.2977 63.5564 36.2977Z" fill="#DEC8FE"/>
<path d="M2.77918 46.3076C4.31393 46.3076 5.55802 45.0634 5.55802 43.5287C5.55802 41.9939 4.31393 40.7498 2.77918 40.7498C1.24444 40.7498 0.000244141 41.9939 0.000244141 43.5287C0.000244141 45.0634 1.24444 46.3076 2.77918 46.3076Z" fill="#DEC8FE"/>
<path d="M14.9275 46.3076C16.4623 46.3076 17.7065 45.0634 17.7065 43.5287C17.7065 41.9939 16.4623 40.7498 14.9275 40.7498C13.3928 40.7498 12.1487 41.9939 12.1487 43.5287C12.1487 45.0634 13.3928 46.3076 14.9275 46.3076Z" fill="#DEC8FE"/>
<path d="M27.0722 46.3076C28.6069 46.3076 29.851 45.0634 29.851 43.5287C29.851 41.9939 28.6069 40.7498 27.0722 40.7498C25.5374 40.7498 24.2932 41.9939 24.2932 43.5287C24.2932 45.0634 25.5374 46.3076 27.0722 46.3076Z" fill="#DEC8FE"/>
<path d="M39.2417 46.3076C40.7765 46.3076 42.0207 45.0634 42.0207 43.5287C42.0207 41.9939 40.7765 40.7498 39.2417 40.7498C37.707 40.7498 36.4629 41.9939 36.4629 43.5287C36.4629 45.0634 37.707 46.3076 39.2417 46.3076Z" fill="#DEC8FE"/>
<path d="M51.3886 46.3076C52.9233 46.3076 54.1674 45.0634 54.1674 43.5287C54.1674 41.9939 52.9233 40.7498 51.3886 40.7498C49.8538 40.7498 48.6096 41.9939 48.6096 43.5287C48.6096 45.0634 49.8538 46.3076 51.3886 46.3076Z" fill="#DEC8FE"/>
<path d="M63.5564 46.3076C65.0912 46.3076 66.3354 45.0634 66.3354 43.5287C66.3354 41.9939 65.0912 40.7498 63.5564 40.7498C62.0217 40.7498 60.7776 41.9939 60.7776 43.5287C60.7776 45.0634 62.0217 46.3076 63.5564 46.3076Z" fill="#DEC8FE"/>
<path d="M2.77918 56.3175C4.31393 56.3175 5.55802 55.0733 5.55802 53.5386C5.55802 52.0039 4.31393 50.7597 2.77918 50.7597C1.24444 50.7597 0.000244141 52.0039 0.000244141 53.5386C0.000244141 55.0733 1.24444 56.3175 2.77918 56.3175Z" fill="#DEC8FE"/>
<path d="M14.9275 56.3174C16.4623 56.3174 17.7065 55.0732 17.7065 53.5385C17.7065 52.0037 16.4623 50.7596 14.9275 50.7596C13.3928 50.7596 12.1487 52.0037 12.1487 53.5385C12.1487 55.0732 13.3928 56.3174 14.9275 56.3174Z" fill="#DEC8FE"/>
<path d="M27.0722 56.3175C28.6069 56.3175 29.851 55.0733 29.851 53.5386C29.851 52.0039 28.6069 50.7597 27.0722 50.7597C25.5374 50.7597 24.2932 52.0039 24.2932 53.5386C24.2932 55.0733 25.5374 56.3175 27.0722 56.3175Z" fill="#DEC8FE"/>
<path d="M39.2417 56.3174C40.7765 56.3174 42.0207 55.0733 42.0207 53.5385C42.0207 52.0038 40.7765 50.7596 39.2417 50.7596C37.707 50.7596 36.4629 52.0038 36.4629 53.5385C36.4629 55.0733 37.707 56.3174 39.2417 56.3174Z" fill="#DEC8FE"/>
<path d="M51.3886 56.3174C52.9233 56.3174 54.1674 55.0732 54.1674 53.5385C54.1674 52.0037 52.9233 50.7596 51.3886 50.7596C49.8538 50.7596 48.6096 52.0037 48.6096 53.5385C48.6096 55.0732 49.8538 56.3174 51.3886 56.3174Z" fill="#DEC8FE"/>
<path d="M63.5564 56.3174C65.0912 56.3174 66.3354 55.0732 66.3354 53.5385C66.3354 52.0037 65.0912 50.7596 63.5564 50.7596C62.0217 50.7596 60.7776 52.0037 60.7776 53.5385C60.7776 55.0732 62.0217 56.3174 63.5564 56.3174Z" fill="#DEC8FE"/>
<path d="M2.77894 66.3272C4.31368 66.3272 5.55777 65.0831 5.55777 63.5483C5.55777 62.0136 4.31368 60.7694 2.77894 60.7694C1.2442 60.7694 0 62.0136 0 63.5483C0 65.0831 1.2442 66.3272 2.77894 66.3272Z" fill="#DEC8FE"/>
<path d="M14.927 66.3271C16.4618 66.3271 17.706 65.0829 17.706 63.5482C17.706 62.0134 16.4618 60.7693 14.927 60.7693C13.3923 60.7693 12.1482 62.0134 12.1482 63.5482C12.1482 65.0829 13.3923 66.3271 14.927 66.3271Z" fill="#DEC8FE"/>
<path d="M27.0717 66.3273C28.6064 66.3273 29.8505 65.0832 29.8505 63.5484C29.8505 62.0137 28.6064 60.7695 27.0717 60.7695C25.5369 60.7695 24.2927 62.0137 24.2927 63.5484C24.2927 65.0832 25.5369 66.3273 27.0717 66.3273Z" fill="#DEC8FE"/>
<path d="M39.2417 66.3271C40.7765 66.3271 42.0207 65.0829 42.0207 63.5482C42.0207 62.0134 40.7765 60.7693 39.2417 60.7693C37.707 60.7693 36.4629 62.0134 36.4629 63.5482C36.4629 65.0829 37.707 66.3271 39.2417 66.3271Z" fill="#DEC8FE"/>
<path d="M51.3881 66.3271C52.9228 66.3271 54.1669 65.0829 54.1669 63.5482C54.1669 62.0134 52.9228 60.7693 51.3881 60.7693C49.8533 60.7693 48.6091 62.0134 48.6091 63.5482C48.6091 65.0829 49.8533 66.3271 51.3881 66.3271Z" fill="#DEC8FE"/>
<path d="M63.5559 66.3271C65.0907 66.3271 66.3349 65.0829 66.3349 63.5482C66.3349 62.0134 65.0907 60.7693 63.5559 60.7693C62.0212 60.7693 60.7771 62.0134 60.7771 63.5482C60.7771 65.0829 62.0212 66.3271 63.5559 66.3271Z" fill="#DEC8FE"/>
</svg>
