<svg width="219" height="99" viewBox="0 0 219 99" fill="none" xmlns="http://www.w3.org/2000/svg">
<path d="M212.445 0.629225C205.549 -2.32597 195.036 5.76106 185.686 19.9591C185.997 10.6449 183.855 3.89942 179.166 1.88988C172.271 -1.06531 161.757 7.02172 152.408 21.2198C152.718 11.9056 150.577 5.16008 145.887 3.15055C138.992 0.195351 128.479 8.28238 119.129 22.4804C119.439 13.1663 117.298 6.42076 112.609 4.41123C105.713 1.45603 95.1997 9.54304 85.8502 23.7411C86.1605 14.4269 84.0189 7.68143 79.3299 5.67189C72.4343 2.71669 61.9209 10.8037 52.5714 25.0018C52.8817 15.6876 50.7402 8.94208 46.0512 6.93255C36.5304 2.85234 20.1216 19.8097 9.40384 44.8183C-1.31389 69.827 -2.2765 93.404 7.24422 97.4842C14.1399 100.439 24.6532 92.3524 34.0028 78.1544C33.6925 87.4685 35.834 94.214 40.523 96.2236C47.4186 99.1788 57.932 91.0917 67.2816 76.8937C66.9712 86.2079 69.1128 92.9534 73.8018 94.9629C80.6974 97.9181 91.2107 89.8311 100.56 75.633C100.25 84.9472 102.392 91.6927 107.081 93.7022C113.976 96.6574 124.49 88.5704 133.839 74.3724C133.529 83.6865 135.67 90.432 140.359 92.4416C147.255 95.3968 157.768 87.3097 167.118 73.1117C166.808 82.4259 168.949 89.1714 173.638 91.1809C183.159 95.2611 199.568 78.3037 210.285 53.2951C221.003 28.2864 221.975 4.71351 212.445 0.629225Z" fill="#9B84EE"/>
</svg>
