<svg width="176" height="163" viewBox="0 0 176 163" fill="none" xmlns="http://www.w3.org/2000/svg">
<path d="M186.341 -32.2894C178.08 -32.2894 170.947 -19.0014 167.642 0.208694C163.916 -9.76012 158.822 -15.9096 153.205 -15.9096C144.943 -15.9096 137.81 -2.62169 134.506 16.5885C130.779 6.61964 125.686 0.470112 120.068 0.470112C111.807 0.470112 104.674 13.7581 101.369 32.9682C97.643 22.9994 92.5495 16.8499 86.9318 16.8499C78.6705 16.8499 71.5373 30.1378 68.2328 49.348C64.5066 39.3792 59.4131 33.2297 53.7954 33.2297C45.5341 33.2297 38.4009 46.5176 35.0963 65.7278C31.3702 55.759 26.2767 49.6094 20.659 49.6094C9.2527 49.6094 0 74.9236 0 106.16C0 137.396 9.2527 162.711 20.659 162.711C28.9203 162.711 36.0535 149.423 39.3581 130.212C43.0842 140.181 48.1777 146.331 53.7954 146.331C62.0567 146.331 69.1899 133.043 72.4945 113.833C76.2206 123.802 81.3141 129.951 86.9318 129.951C95.1931 129.951 102.326 116.663 105.631 97.4529C109.357 107.422 114.451 113.571 120.068 113.571C128.33 113.571 135.463 100.283 138.767 81.0732C142.493 91.042 147.587 97.1915 153.205 97.1915C161.466 97.1915 168.599 83.9035 171.904 64.6934C175.63 74.6622 180.723 80.8117 186.341 80.8117C197.747 80.8117 207 55.4975 207 24.2611C207 -6.97523 197.759 -32.2894 186.341 -32.2894Z" fill="#DEC8FE"/>
</svg>
