<svg width="45" height="46" viewBox="0 0 45 46" fill="none" xmlns="http://www.w3.org/2000/svg">
<path d="M45 22.8469C45 24.2826 43.0112 25.5182 42.7406 26.8715C42.4582 28.2719 43.8232 30.1665 43.2937 31.4609C42.7524 32.7789 40.4459 33.1437 39.6574 34.3087C38.869 35.4855 39.3985 37.7567 38.41 38.757C37.4098 39.7572 35.1386 39.2159 33.9618 40.0043C32.7968 40.781 32.4202 43.0875 31.114 43.6406C29.8196 44.1701 27.9367 42.8168 26.5246 43.0875C25.1595 43.3582 23.9357 45.3469 22.5 45.3469C21.0643 45.3469 19.8287 43.3582 18.4754 43.0875C17.0751 42.8051 15.1804 44.1701 13.886 43.6406C12.568 43.0993 12.2032 40.7928 11.0382 40.0043C9.8614 39.2159 7.59022 39.7455 6.58996 38.757C5.5897 37.7567 6.13102 35.4855 5.34258 34.3087C4.5659 33.1437 2.25941 32.7672 1.70633 31.4609C1.17678 30.1665 2.53007 28.2836 2.25942 26.8715C1.98876 25.5064 0 24.2826 0 22.8469C0 21.4113 1.98876 20.1756 2.25942 18.8223C2.54184 17.422 1.17678 15.5274 1.70633 14.2329C2.24765 12.9149 4.55413 12.5501 5.34258 11.3851C6.13102 10.2083 5.60146 7.93714 6.58996 6.93688C7.59022 5.93662 9.8614 6.47794 11.0382 5.6895C12.2032 4.91282 12.5798 2.60634 13.886 2.05325C15.1804 1.5237 17.0633 2.87699 18.4754 2.60634C19.8405 2.33568 21.0643 0.346924 22.5 0.346924C23.9357 0.346924 25.1713 2.33568 26.5246 2.60634C27.9249 2.88876 29.8196 1.5237 31.114 2.05325C32.432 2.59457 32.7968 4.90105 33.9618 5.6895C35.1386 6.47794 37.4098 5.94839 38.41 6.93688C39.4103 7.93714 38.869 10.2083 39.6574 11.3851C40.4341 12.5501 42.7406 12.9267 43.2937 14.2329C43.8232 15.5274 42.4699 17.4102 42.7406 18.8223C43.0112 20.1874 45 21.4113 45 22.8469Z" fill="#FFBE17"/>
</svg>
