<svg width="369" height="120" viewBox="0 0 369 120" fill="none" xmlns="http://www.w3.org/2000/svg">
<path d="M147.585 102.592C149.726 101.918 151.822 100.911 153.998 100.62C173.241 98.1252 192.585 96.3055 211.731 93.1863C226.728 90.7392 241.55 86.9912 256.357 83.3599C273.347 79.1927 290.464 75.3648 307.09 69.8571C322.251 64.8271 337.581 59.6838 351.062 50.0003C352.726 48.8024 354.364 47.5676 355.951 46.2588C364.583 39.1052 361.806 31.1375 354.822 25.4922C345.808 18.2122 335.097 15.6823 324.353 13.5532C303.928 9.49823 283.328 8.03971 262.643 7.6541C227.48 7.00752 192.483 8.83295 157.564 13.0074C127.047 16.648 97.0002 22.7545 67.35 31.087C51.9229 35.4262 36.6925 40.6662 22.8533 49.4718C18.263 52.397 14.0517 56.3403 10.3349 60.5355C5.73589 65.7379 6.47826 71.9811 11.364 77.1022C19.5236 85.6578 29.8597 89.652 40.0534 93.7965C59.0271 101.506 78.6733 106.355 98.5825 109.632C109.987 111.501 121.515 112.346 132.971 113.736C135.759 114.076 138.518 114.713 141.506 115.258C128.326 121.733 114.803 118.659 101.506 117.153C82.7663 115.025 64.2919 110.989 46.37 104.23C32.8003 99.1142 19.4376 93.3937 7.99565 83.5008C-3.05173 73.9432 -1.14844 60.5751 7.7449 51.8229C20.7051 39.0594 36.9156 32.8831 53.441 27.819C62.3506 25.0855 71.2742 22.3897 80.2793 20.0619C89.2619 17.7483 98.3277 15.8282 107.397 13.9721C109.61 13.5116 111.984 13.9542 113.257 13.9642C116.018 13.1348 117.943 12.5637 119.855 11.9677C122.763 11.0775 126.093 10.9326 128.764 10.7262C132.714 10.4138 136.518 6.86914 141.055 9.59401C142.765 10.6185 145.86 8.61039 148.357 8.22201C154.737 7.21668 161.135 6.30028 167.535 5.42234C174.398 4.48955 181.263 3.40229 188.161 2.84032C192.307 2.5027 196.524 3.29256 200.694 3.14639C203.827 3.0396 206.911 1.97119 210.042 1.82597C215.151 1.5822 220.283 1.89007 225.394 1.67193C228.653 1.53149 232.073 -0.136846 235.095 0.586567C243.022 2.46818 250.775 0.643453 258.588 0.70575C268.129 0.775259 277.698 1.10028 287.225 1.8781C308.566 3.61164 330.009 5.10725 350.206 14.2573C354.111 16.0314 357.948 18.5816 361.117 21.6496C371.26 31.4955 370.101 45.5629 359.055 53.8586C344.207 65.0043 327.615 71.7962 310.392 76.724C288.297 83.0513 265.984 88.5176 243.827 94.6172C223.082 100.332 202.019 103.778 180.651 104.966C170.787 105.508 160.86 104.871 150.95 104.683C149.886 104.66 148.834 104.07 147.774 103.738C147.715 103.356 147.656 102.974 147.597 102.592L147.585 102.592Z" fill="#FFD25D"/>
</svg>
