<svg width="97" height="42" viewBox="0 0 97 42" fill="none" xmlns="http://www.w3.org/2000/svg">
<path d="M94.1752 1.8212C91.3182 0.355739 86.494 3.68608 81.9433 9.74379C82.4232 5.63507 81.7527 2.6047 79.8099 1.60819C76.953 0.142734 72.1288 3.47308 67.5781 9.53079C68.058 5.42207 67.3875 2.3917 65.4447 1.39519C62.5878 -0.0702704 57.7636 3.26007 53.2129 9.31778C53.6928 5.20906 53.0222 2.1787 51.0795 1.18219C48.2225 -0.283265 43.3984 3.04707 38.8477 9.10478C39.3276 4.99606 38.657 1.9657 36.7143 0.969188C33.8573 -0.49627 29.0331 2.83406 24.4824 8.89178C24.9623 4.78305 24.2918 1.7527 22.3491 0.756184C18.4045 -1.26716 10.7138 5.84652 5.17243 16.6497C-0.368975 27.4529 -1.65996 37.8493 2.28464 39.8726C5.14161 41.3381 9.96577 38.0077 14.5165 31.95C14.0366 36.0587 14.7071 39.0891 16.6498 40.0856C19.5068 41.5511 24.331 38.2207 28.8817 32.163C28.4018 36.2717 29.0723 39.3021 31.0151 40.2986C33.8721 41.7641 38.6962 38.4337 43.2469 32.376C42.767 36.4847 43.4376 39.5151 45.3803 40.5116C48.2373 41.9771 53.0614 38.6467 57.6122 32.589C57.1323 36.6977 57.8028 39.7281 59.7455 40.7246C62.6025 42.1901 67.4267 38.8597 71.9774 32.802C71.4975 36.9107 72.168 39.9411 74.1108 40.9376C78.0553 42.961 85.7459 35.8473 91.2874 25.0441C96.8288 14.2409 98.1237 3.84656 94.1752 1.8212Z" fill="#DEC8FE"/>
</svg>
