<svg width="114" height="115" viewBox="0 0 114 115" fill="none" xmlns="http://www.w3.org/2000/svg">
<path d="M114 57.7104C114 61.3475 108.962 64.4777 108.276 67.9061C107.561 71.4536 111.019 76.2533 109.677 79.5326C108.306 82.8715 102.463 83.7957 100.465 86.7471C98.4681 89.7282 99.8096 95.4819 97.3054 98.0159C94.7714 100.55 89.0178 99.1785 86.0366 101.176C83.0853 103.144 82.1313 108.987 78.8222 110.388C75.5429 111.729 70.773 108.301 67.1956 108.987C63.7374 109.672 60.637 114.71 57 114.71C53.363 114.71 50.2327 109.672 46.8044 108.987C43.2568 108.271 38.4571 111.729 35.1778 110.388C31.8389 109.016 30.9148 103.173 27.9634 101.176C24.9822 99.1785 19.2286 100.52 16.6946 98.0159C14.1606 95.4819 15.5319 89.7282 13.5345 86.7471C11.567 83.7957 5.72385 82.8417 4.3227 79.5326C2.98117 76.2533 6.40952 71.4835 5.72385 67.9061C5.03818 64.4479 0 61.3475 0 57.7104C0 54.0734 5.03818 50.9432 5.72385 47.5148C6.43933 43.9672 2.98117 39.1676 4.3227 35.8883C5.69404 32.5494 11.5371 31.6252 13.5345 28.6738C15.5319 25.6927 14.1904 19.939 16.6946 17.405C19.2286 14.871 24.9822 16.2424 27.9634 14.245C30.9148 12.2774 31.8687 6.4343 35.1778 5.03315C38.4571 3.69162 43.227 7.11996 46.8044 6.43429C50.2626 5.74862 53.363 0.710449 57 0.710449C60.637 0.710449 63.7673 5.74862 67.1956 6.43429C70.7432 7.14977 75.5429 3.69162 78.8222 5.03315C82.1611 6.40449 83.0853 12.2476 86.0366 14.245C89.0178 16.2424 94.7714 14.9008 97.3054 17.405C99.8394 19.939 98.4681 25.6927 100.465 28.6738C102.433 31.6252 108.276 32.5792 109.677 35.8883C111.019 39.1676 107.59 43.9374 108.276 47.5148C108.962 50.973 114 54.0734 114 57.7104Z" fill="#FFD25D"/>
</svg>
