<svg width="62" height="63" viewBox="0 0 62 63" fill="none" xmlns="http://www.w3.org/2000/svg">
<path d="M30.725 39.0976C26.4955 39.0976 23.0566 35.6587 23.0566 31.4291C23.0566 27.1996 26.4955 23.7607 30.725 23.7607C34.9546 23.7607 38.3935 27.1996 38.3935 31.4291C38.3871 35.6587 34.9481 39.0976 30.725 39.0976ZM30.725 26.9811C28.2696 26.9811 26.2706 28.9801 26.2706 31.4356C26.2706 33.891 28.2696 35.8901 30.725 35.8901C33.1805 35.8901 35.1796 33.891 35.1796 31.4356C35.1796 28.9801 33.1805 26.9811 30.725 26.9811Z" fill="#FFBE17"/>
<path d="M30.7386 44.9405C29.813 44.9405 28.8873 44.844 27.9746 44.6576C24.4457 43.9249 21.4118 41.8551 19.432 38.8404C17.4522 35.8258 16.7708 32.2197 17.5036 28.6844C18.14 25.6248 19.8305 22.8672 22.2538 20.9132C24.6514 18.9848 27.6532 17.9242 30.7129 17.9242C31.6385 17.9242 32.5641 18.0206 33.4768 18.207C37.0057 18.9398 40.0397 21.0096 42.0194 24.0242C43.9992 27.0389 44.6806 30.6449 43.9478 34.1803C43.3114 37.2399 41.6209 39.9974 39.1976 41.9515C36.7936 43.8799 33.7918 44.9405 30.7386 44.9405ZM30.7129 21.1381C25.8727 21.1381 21.6367 24.5835 20.6468 29.3336C19.4898 34.8873 23.0702 40.351 28.6238 41.508C29.318 41.6558 30.0315 41.7265 30.7321 41.7265C35.5723 41.7265 39.8083 38.2812 40.7981 33.531C41.3574 30.8378 40.8367 28.0931 39.3326 25.7919C37.8285 23.4907 35.5144 21.9159 32.8212 21.3567C32.127 21.2153 31.4135 21.1381 30.7129 21.1381Z" fill="#FFBE17"/>
<path d="M30.7444 50.5905C30.153 50.5905 29.5552 50.5648 28.9574 50.507C23.8601 50.0377 19.2578 47.608 15.986 43.6741C12.7143 39.7403 11.178 34.7652 11.6472 29.6743C12.0908 24.892 14.2891 20.476 17.8501 17.2557C21.3854 14.0482 25.9492 12.287 30.6994 12.287C31.2907 12.287 31.8885 12.3127 32.4863 12.3705C37.5836 12.8398 42.1859 15.2695 45.4577 19.2033C48.7295 23.1372 50.2657 28.1123 49.7965 33.2096C49.353 37.9919 47.1546 42.4078 43.5936 45.6282C40.0583 48.8228 35.4945 50.5905 30.7444 50.5905ZM30.6994 15.4945C22.4267 15.4945 15.6132 21.7166 14.8483 29.97C14.0384 38.7247 20.4984 46.5024 29.2531 47.3123C29.748 47.3573 30.2494 47.383 30.7444 47.383C39.017 47.383 45.8305 41.1609 46.5954 32.9075C47.4053 24.1528 40.9454 16.3751 32.1906 15.5652C31.6957 15.5138 31.1943 15.4945 30.6994 15.4945Z" fill="#FFBE17"/>
<path d="M30.7369 56.3499C30.4476 56.3499 30.1519 56.3434 29.8562 56.337C26.4945 56.2213 23.2549 55.45 20.2273 54.0423C17.3027 52.686 14.7058 50.7962 12.4946 48.4307C10.2835 46.0653 8.58651 43.3399 7.43592 40.3317C6.24034 37.2142 5.70039 33.9295 5.81609 30.5678C6.04107 24.0692 8.74077 18.0077 13.4267 13.4954C18.0933 8.99591 24.2319 6.51477 30.7047 6.51477C30.994 6.51477 31.2896 6.5212 31.5853 6.52762C34.9471 6.64332 38.1867 7.41466 41.2143 8.82236C44.1389 10.1786 46.7358 12.0684 48.9469 14.4339C51.1581 16.7993 52.8551 19.5247 54.0057 22.533C55.2012 25.6505 55.7412 28.9351 55.6255 32.2968C55.4005 38.7954 52.7008 44.8569 48.0149 49.3692C43.3483 53.8751 37.2097 56.3499 30.7369 56.3499ZM30.7047 9.72869C18.9546 9.72869 9.43497 18.9334 9.03002 30.6835C8.61221 42.6457 18.0097 52.7117 29.9655 53.1295C30.2226 53.1359 30.4797 53.1424 30.7304 53.1424C42.4805 53.1424 52.0002 43.9377 52.4051 32.1876C52.8229 20.2254 43.4254 10.1594 31.4696 9.74155C31.2189 9.73512 30.9618 9.72869 30.7047 9.72869Z" fill="#FFBE17"/>
<path d="M30.7251 62.1606C26.5791 62.1606 22.5553 61.3507 18.7629 59.7438C15.1054 58.1947 11.8208 55.9835 8.99898 53.1617C6.17716 50.3398 3.95956 47.0552 2.41688 43.3978C0.816343 39.6053 0 35.5815 0 31.4355C0 27.2896 0.809915 23.2657 2.41688 19.4733C3.96599 15.8159 6.17716 12.5313 8.99898 9.70943C11.8208 6.88761 15.1054 4.67001 18.7629 3.12733C22.5553 1.52679 26.5791 0.710449 30.7251 0.710449C34.8711 0.710449 38.8949 1.52036 42.6873 3.12733C46.3448 4.67644 49.6294 6.88761 52.4512 9.70943C55.273 12.5313 57.4906 15.8159 59.0333 19.4733C60.6339 23.2657 61.4502 27.2896 61.4502 31.4355C61.4502 35.5815 60.6403 39.6053 59.0333 43.3978C57.4842 47.0552 55.273 50.3398 52.4512 53.1617C49.6294 55.9835 46.3448 58.2011 42.6873 59.7438C38.8949 61.3507 34.8711 62.1606 30.7251 62.1606ZM30.7251 3.91794C15.5554 3.91794 3.21392 16.2594 3.21392 31.4291C3.21392 46.5988 15.5554 58.9403 30.7251 58.9403C45.8948 58.9403 58.2363 46.5988 58.2363 31.4291C58.2363 16.2658 45.8948 3.91794 30.7251 3.91794Z" fill="#FFBE17"/>
</svg>
